<?xml version="1.0" encoding="utf-8"?>
<!-- Generator: Adobe Illustrator 19.2.1, SVG Export Plug-In . SVG Version: 6.00 Build 0)  -->
<svg version="1.1" id="Layer_1" xmlns="http://www.w3.org/2000/svg" xmlns:xlink="http://www.w3.org/1999/xlink" x="0px" y="0px"
	 viewBox="0 0 525.6 216.2" style="enable-background:new 0 0 525.6 216.2;" xml:space="preserve">
<style type="text/css">
	.st0{fill:#FFFFFF;}
</style>
<path d="M235.7,203.4c-2.5-4.1-7.2-4.5-10.9-6.6c-3.4-1.9-7.3-3.2-10.8-5.2c-3.1-1.8-6.6-3-9.9-4.7c-7.4-3.8-14.8-7.3-21.9-11.6
	c-5-3-9.9-6.6-14-10.8c-2.6-2.7-4.7-6.3-6.2-10c-2.9-6.9-5.3-14-6.2-21.5c-0.3-2.6,0.1-5.4-0.1-8c-0.7-7.7,0-15.4,0.5-23.1
	c0.4-5,1.7-10.1,3.9-14.5c2.5-5,2.9-10.6,5.4-15.6c3.3-6.7,7.7-12.6,11.7-18.8c6.3-9.9,15.9-15.7,25.2-22c2-1.3,4.5-2.3,6.9-2.7
	c7.4-1,13.9-4.7,21-6.4c5.1-1.2,10.6-1.4,15.4-3.4c7.6-3.3,13.7,1,19.9,3.3c4.9,1.8,9.7,2.8,14.7,3.7c5.9,1.1,10.7,4.9,15.9,7.7
	c7.2,3.9,14.4,7.9,21.4,12.3c6.1,3.8,7.9,10.7,10.4,16.9c2.9,7.4,5.5,15,6.4,23c0.4,3.4,0.5,6.8,0.6,10.2c0,2.5-0.4,5.1,1.6,7.2
	c0.6,0.6,0.9,1.7,0.4,2.5c-0.7,0.9-0.9-0.2-1.4-0.5c-0.7-0.4-0.8,0.2-0.8,0.7c-0.1,1.6,0.8,3,2,3.5c1.9,0.7,2.3,0.4,0.6,2.5
	c-2.2,2.7-3.9,6-4.5,9.7c-0.5,3.1-0.7,6.2-1.4,9.2c-0.6,2.5-2,4.9-2.6,7.4c-1.9,8.1-8,13.4-12.7,19.6c-3.8,5.2-9,8.7-13.5,13.1
	c-1.1,1.1-3.3,1.7-2.5,4.1c0,0.1-0.1,0.3-0.2,0.4c-7.2,2.4-9.8,10.1-16.3,13.5c-3.8,2-7.8,4.1-11.4,6.6c-3.1,2.2-6.8,3-10,4.8
	c-1.7,0.9-3.3,2.1-5,3c-0.2,0.1-0.3,0.4-0.4,0.6c-0.1,1.3-5.3,6.9-6.7,7.1c-0.3,0-0.7,0-0.8-0.2c-0.1-0.2,0-0.6,0.1-0.8
	c0.5-0.6,1.2-1.1,1.6-1.8c0.5-0.8,1.9-1.6,0.6-2.6c-1.2-0.9-2.5-0.3-3.3,0.8c-1.2,1.4-2.3,2.8-4.4,2.7c-0.2,0-0.4,0.1-0.5,0.2
	c0.2,0.3,0.4,0.7,0.7,1c0.4,0.5,1.3-0.5,1.5,0.5c0,0.1-0.9,0.4-1.4,0.6c-0.8,0.2-1.7,0.2-1.9-0.9c-0.3-1.4-0.9-2.5-1.6-3.7
	c-1.1-1.7-2.7-2.4-4.7-2.4C235.9,203.7,235.8,203.6,235.7,203.4z"/>
<path d="M492.9,212.7c-0.8-1.9,0.5-4.4-0.6-6.7c-0.1-0.1,0-0.3,0-0.5c0.2,0,0.3,0.1,0.5,0.1c1.7,0.8,3.9,7.6,2.9,9.1
	c-0.4,0.6-0.5,2-1.7,1.5C492.7,215.5,492.8,214.3,492.9,212.7z"/>
<path d="M492.4,203.1c0,0.6-0.1,1.1-0.6,0.9c-1.3-0.6-1.6-1.8-1.9-3c-0.1-0.3,0.6-1,0.7-1C492.1,200.6,491.8,202.1,492.4,203.1z"/>
<path d="M525,171.7c-0.2,0.5-0.6,0.7-1.1,0.6c-0.5-0.1-0.9-0.4-0.7-0.9c0.1-0.2,0.6-0.5,0.9-0.5C524.5,170.9,524.9,171.1,525,171.7z
	"/>
<path d="M235.7,203.4c0.1,0.1,0.3,0.3,0.4,0.4c0.5,0.4,1.1,0.7,0.3,1.4c-0.3,0.2-0.6,0.3-1,0.4C235.6,204.8,234.5,204,235.7,203.4z"
	/>
<path d="M3.8,108.8c0.2,0.5,0.1,0.9-0.4,0.7c-0.7-0.2-1-0.9-1.2-1.6c-0.1-0.3,0.1-0.6,0.1-0.9C3.4,107.4,2.9,108.7,3.8,108.8z"/>
<path d="M165.3,178.2c-0.2-0.4-0.4-0.7-0.4-0.9c0.1-0.2,0.4-0.5,0.6-0.6c0.4-0.1,0.7,0.3,0.6,0.7
	C165.9,177.7,165.6,177.8,165.3,178.2z"/>
<path d="M1.7,154.7c-0.6,0.1-0.8,0.2-1,0.2c-0.3-0.1-0.7-0.2-0.7-0.4c-0.1-0.6,0.4-0.3,0.6-0.2C0.8,154.3,1.1,154.5,1.7,154.7z"/>
<path d="M525.4,121c0.1,0.1,0.1,0.1,0.2,0.2c-0.1,0.1-0.2,0.2-0.3,0.3c0,0-0.1-0.1-0.2-0.1C525.2,121.2,525.3,121.1,525.4,121z"/>
<path d="M63.8,0.6c-0.1-0.1-0.3-0.1-0.3-0.2c0-0.1,0.1-0.3,0.2-0.4c0.2,0.1,0.3,0.2,0.5,0.3C64,0.4,63.9,0.5,63.8,0.6z"/>
<path d="M76.7,168.2c-0.1-0.1-0.2-0.2-0.2-0.3c0-0.1,0.2-0.2,0.2-0.3c0.1,0.1,0.3,0.2,0.3,0.3C76.9,167.9,76.8,168,76.7,168.2z"/>
<path d="M284.6,192c0.3-0.1,0.5-0.1,0.7-0.1c0.1,0,0.2,0.1,0.3,0.2c-0.2,0.1-0.4,0.1-0.6,0.2C284.9,192.2,284.8,192.1,284.6,192z"/>
<path class="st0" d="M331.5,82.9c-0.3,0.8-0.3,2.4-1,2.8c-0.9,0.4-1.4-1.1-1.9-1.8c-3.3-4.4-6.6-8.8-9.8-13.3
	c-4-5.8-9.3-10.3-14.5-14.8c-5.2-4.4-9.3-9.9-14.5-14.1c-5.3-4.3-9.8-9.4-17-11.2c-3.6-0.9-6.5-4.3-9.8-6.6
	c-0.2-0.2-0.3-0.5-0.5-0.7c0.3,0,0.6-0.2,0.9-0.1c5.6,2.5,11.4,3.6,17.4,4.6c4.2,0.7,8,3.6,11.8,5.8c8.1,4.7,16.5,8.7,24.1,14.2
	c2.9,2.1,4.4,5.1,5.8,8c3.9,8.2,6.9,16.8,8.7,25.8C331.3,81.9,331.3,82.3,331.5,82.9z"/>
<path class="st0" d="M248.8,134.2c0-4.5,0-10.6,0-16.7c0-2.6,0.8-4.6,4-4.4c8.6,0.6,17.3-1.1,25.9-0.3c1.5,0.1,2.1,0.9,2.1,2.3
	c0.1,5.6-1.2,11.1-2.5,16.5c-0.2,1.1-0.9,1.8-2.1,2.1c-8,1.9-16,3.8-23.9,5.7C249,140.3,247,139.8,248.8,134.2z"/>
<path class="st0" d="M246.5,116.5c-0.7,6.7-0.1,13.6-0.9,20.5c-0.4,3.9-2.9,3.9-5.3,3.6c-3.6-0.5-7.1-0.6-10.7-0.4
	c-2.4,0.1-4.6-0.4-6.8-1c-1.7-0.4-1.7-2.9-1.8-3.8c-0.7-7.7-3-15.3-2.6-23.1c0-1,0.8-1,1.6-0.9c6.3,0.6,12.5,0.9,18.8,1.8
	c2.1,0.3,4.1,0.5,6.3,0.2C247.4,113,246.2,115.2,246.5,116.5z"/>
<path class="st0" d="M192.5,90.1c-2.1,0.3-2.3-0.4-2-1.3c1-2.8,2.6-5.5,3-8.3c0.8-5.1,4.5-8.8,6.1-13.5c0.8-2.4,3.2-4.6,5.9-6.6
	c5.3-3.8,11.6-4.5,17-7.4c0.7-0.4,1.5-0.5,2.3-0.7c0.7-0.1,1.5-0.4,2,0.4c0.4,0.7-0.3,1.1-0.7,1.7c-3.3,5.4-4.7,11.5-5.9,17.6
	c-0.7,3.6-2.5,6.9-1.9,10.8c0.1,0.7-0.6,1.3-1.3,1.5C208.6,86.2,200.2,88.3,192.5,90.1z"/>
<path class="st0" d="M300.5,83.8c-0.1,3-1.6,0.5-2.3,0.3c-6.3-1.4-12.5-3.1-19-3.5c-3.2-0.2-3.4-2-3-4c0.4-2.3,0-4.5-0.1-6.7
	c0-1.4-0.7-2.6-2.4-2.9c-2.3-0.3-1.5-1-2.9-2.5c-1.3-1.5-1.9-3.2-2.6-4.8c-1.5-3.7-2.7-7.5-4-11.3c-0.6-1.7-0.1-2.1,1.7-1.8
	c4.1,0.7,7.5,2.9,11,5c3.6,2.1,7.1,4.4,10.5,6.7c6.3,4.2,10.3,10.3,11.4,18C299.3,78.9,300.8,81.1,300.5,83.8z"/>
<path class="st0" d="M248.4,169.2c-4.1,0-2.7-3.3-2.5-4.6c0.7-4.5,0.9-9.2,1.8-13.7c0.4-1.8-0.1-3.9,0.3-5.9
	c0.2-1.4,0.6-2.6,2.3-2.8c5-0.6,9.7-2.5,14.5-3.4c3.6-0.7,7.3-1.5,10.9-2.2c0.7-0.1,0.9,0.2,0.9,0.7c0,0.5,0.1,1-0.1,1.4
	c-1.2,2.6-1.5,5.3-1.9,8c-0.6,3.9-2.6,7.3-4.5,10.7c-1.2,2.1-2.4,4.3-3.6,6.4c-0.5,1-1.5,1.5-2.5,1.7
	C258.7,166.9,253.4,168,248.4,169.2z"/>
<path class="st0" d="M159.1,133.9c-0.1-0.6-0.1-1.2,0.7-1.3c0.7-0.1,0.9,0.6,1.1,1.1c2,4.2,3.5,8.6,6.7,12
	c3.8,4.2,7.2,8.7,12.6,11.3c4,1.9,7.3,5.3,10.8,8.1c3.3,2.6,7,4.5,10.6,6.7c5.9,3.6,11.3,7.8,16.1,12.8c2,2,4.1,3.9,6.2,5.9
	c0.4,0.4,1.2,0.9,0.6,1.6c-0.4,0.5-1-0.1-1.5-0.3c-4.1-2.1-8.4-3.7-12.8-5.3c-4.4-1.6-8.4-4.2-12.6-6.3c-5.4-2.7-10.9-5.3-16-8.6
	c-9.6-6.2-15.9-14.6-19.2-25.5C161.2,142,159.4,138.2,159.1,133.9z"/>
<path class="st0" d="M217.2,131.3c-0.6,1.7,0.3,3.6,0.8,5.5c0.5,1.9-0.2,2.2-1.9,2.1c-7.8-0.4-14.3-4.1-21-7.4
	c-0.9-0.5-1.4-1.2-1.8-2.1c-2.2-5.5-2.7-11.3-3.2-17.1c-0.1-1.5,0.7-2,2.1-1.7c4.5,0.8,9,0.3,13.6,0c2.7-0.2,5.5,0.3,8.3,0.5
	c0.8,0.1,1.4,0.5,1.4,1.4C215.2,118.6,216.6,124.7,217.2,131.3z"/>
<path class="st0" d="M299.8,110.8c-5,0.6-9.3,0.9-13.6,0.8c-1.8,0-2.7-0.7-3.3-2.6c-2.6-8.1-2.8-16.7-5.8-24.6
	c-0.7-1.8,1.8-1.6,2.6-1.6c6.8,0.6,13.4,2.3,19.9,4.6c0.8,0.3,1.7,0.9,1.9,1.6c2.1,6.4,4.1,12.8,3.2,19.7
	C304.3,112.3,300.9,110.1,299.8,110.8z"/>
<path class="st0" d="M249,56.8c0,2.7,0,5.4,0,8.1c0,1.3-0.3,2.1-2,1.8c-5.6-1-11.1,0-16.7,0.4c-1.8,0.1-2.4,1.4-2.4,3
	c0,3.1,0,6.2,0,9.3c0,2.1-3,4.2-5.6,3.7c-2.1-0.4-1.5-2.5-1.3-3.8c0.6-3.3,1.7-6.6,2.4-9.9c1-5.6,3.2-10.8,5.6-15.9
	c2.6-5.6,8.3-5.6,12.9-7.5c1.7-0.7,3.8,0,5.6-0.7c0.9-0.4,1.3,0.5,1.3,1.5c-0.1,3.3,0,6.7,0,10C248.9,56.8,248.9,56.8,249,56.8z"/>
<path class="st0" d="M196.2,91.6c3.6-1,7.2-1.9,10.8-2.9c2.9-0.8,5.8-1.6,8.7-2.3c0.6-0.2,2.3,0.1,1.7,0.5c-2.8,2,0.1,3.8,0,5.6
	c-0.1,2.5-0.5,4.9-1,7.3c-0.5,2.4-1.3,4.8-1,7.3c0.1,1.1-0.1,2.1-1.5,1.8c-6.6-1.1-13.2,0.4-19.8,0.1c-4.3-0.2-5.1-0.9-4.6-5.2
	c0.4-3.7,0.4-7.4,1.4-10.9C191.4,91.2,194.3,91.9,196.2,91.6z"/>
<path class="st0" d="M240,169.3c-3.4-0.8-6.9-1.5-10.3-2.2c-1.4-0.3-1.4-1.4-1.7-2.4c-1.9-6.8-3.6-13.6-5.5-20.3
	c-0.5-1.9,0.4-2.4,2-2.3c5.8,0.5,11.6,1,17.5,0.9c2.7,0,3.8,1.2,2.9,4c-1.5,4.9-0.5,10.1-1.4,15.1c-0.3,1.8-0.7,3.6-1,5.4
	C242.2,169,241.3,169.3,240,169.3z"/>
<path class="st0" d="M277.8,142.3c-0.2-4.2,1.7-6.3,5.6-7.2c1.8-0.4,3.4-1.6,5.1-2.3c3.1-1.3,6.1-2.8,9.5-3.2c0.1,0,0.4,0,0.4-0.1
	c0.8-1.7,2.3-1.7,3.8-1.9c-0.4,1.6-0.3,3.4-1.2,4.7c-3.6,5.3-6.3,11.1-9.1,16.8c-1.9,4-5.7,5.4-8.9,7.2c-3.1,1.7-5.3,4.5-8.6,5.8
	c-1.7,0.7-3.4,1.4-5.3,1.7c0.7-1.5,1.2-3.2,2.1-4.6c3.1-4.8,5.1-10.1,6.5-15.6C277.9,143.1,277.8,142.7,277.8,142.3z"/>
<path class="st0" d="M223.8,165.6c-5.3-1.3-9.7-4.4-14.5-6.7c-9-4.3-11.2-12.7-13.6-21.1c-0.2-0.8-0.2-1.6,0.5-2.2
	c0.7-0.5,1.4-0.3,2,0.1c2.8,1.8,6,2.8,8.9,4.4c2.1,1.1,4.9,1.8,7.2,1.4c5-0.9,5.2,2.9,6,5.6c1.8,5.6,3,11.4,4.5,17.1
	C225.3,165.6,225,165.9,223.8,165.6z"/>
<path class="st0" d="M328.4,129.7c-1.9,7-4,13.9-9.2,19.4c-1.8,2-3.5,4.2-5.1,6.3c-5.8,7.5-13.6,13-20.1,19.7
	c-5,5.2-10.3,10.2-16.6,13.8c-3.8,2.2-7.8,4-11.7,6c-0.5,0.3-1.2,0.8-1.7,0.1c-0.4-0.7,0.3-1.2,0.7-1.6c4.3-3.8,8.8-7.4,13-11.2
	c3.7-3.4,7.1-7,11.5-9.6c2.5-1.4,3.1-5,5.9-6.6c6.2-3.7,10.3-9.6,14.9-15.1c3.5-4.1,8.3-7.1,10.8-11.9c1.7-3.1,4.5-5.5,5.5-9
	c0.2-0.7,0.6-1.4,1.5-1.4C328.4,128.6,328.4,129.1,328.4,129.7z"/>
<path class="st0" d="M159.5,123.3c0.9,0.4,0.8-0.2,0.8-0.7c0-0.5,0-1,0-1.5c0.5,0.3,1.2,0.6,1.5,1c3,4.4,8,6.4,11.9,9.7
	c4.5,3.9,8.7,7.7,11,13.6c2.7,6.8,6.3,13.3,11.4,18.7c0.3,0.3,0.7,1,0.5,1.2c-0.5,0.8-1.2,0.1-1.6-0.2c-3.8-2.7-7.6-5.3-11.2-8.2
	c-3.7-2.9-8-5-11.4-8.6c-4.5-4.7-7.5-10.1-10-15.9c-1.2-2.8-2.3-5.7-3.4-8.5C159.1,123.8,158.5,122.9,159.5,123.3z"/>
<path class="st0" d="M224.3,34.2c0.5,0,1.1-0.2,1.1,0.5c0,0.3-0.3,0.7-0.6,0.9c-8.2,6.1-14.2,14.4-21.2,21.6
	c-2.2,2.3-4.7,3.7-7.2,4.8c-6.1,2.6-10.5,7.2-15.4,11.2c-0.4,0.3-1.3,0.9-1.3,0.8c-0.5-0.6,0.1-1.1,0.3-1.7
	c4-10.4,12-17.7,19.8-25.1c6.6-6.2,14.7-9.9,23.2-12.7C223.3,34.3,223.8,34.3,224.3,34.2z"/>
<path class="st0" d="M213,30.8c0.8-0.4,3.4,2.2,3.7-1.6c0.1-0.9,2.5-0.1,3.9-1c3.4-2.2,7.3-3.4,11.4-3.9c0.4,0,0.7,0,1.1,0.1
	c-0.3,0.2-0.5,0.6-0.8,0.7c-11.8,4.1-22.2,10.7-31.7,18.6c-8.5,7.1-18.1,13.2-25.2,21.9c-2.5,3-4.2,6.6-6.9,9.5
	c-0.4,0.4-0.6,1.4-1.4,0.8c-0.6-0.4-0.1-1,0.1-1.5c4.3-10.2,11.1-18.7,18.2-27c3.2-3.8,7.1-7.3,11.8-9.7c3.9-2.1,7.4-5,11.8-6.2
	C210.1,31.1,211.3,31.1,213,30.8z"/>
<path class="st0" d="M286.3,113c5.4-0.3,10.5-0.5,15.5-0.8c2.2-0.1,3.2,0.7,2.9,2.9c-0.4,2.8-0.7,5.5-1.1,8.3
	c-0.2,1.2-1,1.8-2.1,2.1c-6,1.5-11.5,4.4-17.3,6.3c-1.1,0.4-2.6,1-3.4,0.3c-1-0.9,0.1-2.2,0.3-3.4c0.6-4.3,2.6-8.4,2.3-12.9
	C283.2,113,284.3,112.2,286.3,113z"/>
<path class="st0" d="M174.4,93.1c1.3-7.5,2.3-15.1,9.4-20.1c4.1-2.8,7.7-6.3,12.1-8.7c0.7-0.4,1.4-0.6,2.2-0.9c0.2,1-1,0.9-1.1,1.5
	c-1.5,6.2-5.5,11.3-7.4,17.4c0,0.2-0.1,0.3-0.1,0.5c-0.4,7.8-5.8,10.9-12.3,13.1C174.3,96.8,174.4,95.1,174.4,93.1z"/>
<path class="st0" d="M250.6,58.1c0.2-3.7,0.5-7.5,0.7-11.2c0-0.5-0.1-1.3,0.1-1.4c2.2-1,4.5-0.5,6.8-0.5c1.3,0,2,0.7,2.4,1.9
	c2.1,6.3,4.4,12.5,6.6,18.7c0.3,1,0.3,1.7-0.9,1.9c-4.9,0.8-9.7,0.2-14.5-0.6c-0.9-0.1-1-0.9-1-1.7c0-2.4,0-4.8,0-7.2
	C250.7,58.1,250.7,58.1,250.6,58.1z"/>
<path class="st0" d="M243.3,108.3c0.5,0,1.1,0.2,1.3,0c0.6-0.6,1.1-1,1.8-0.4c0.7,0.6,0.7,1.4,0.5,2.2c-0.2,0.9-1,1.4-1.8,1.3
	c-8.2-1.4-16.6,0.3-24.7-1.9c-3.3-0.9-2.7-3.9-2.4-6.2c0.3-2.5,1.1-5,1.8-7.4c0.3-1,0.3-1.7,0.1-2.7c-1.1-4.2,1-7.9,4.6-8.5
	c2.2-0.4,3.3,0.2,3.3,2.7c0,4.9,0.3,9.9,0.4,14.8c0.1,3,0.8,5.1,4.5,4.9c2.5-0.2,5.1-1.3,7.3,1.3
	C240.8,109.1,242.3,108.9,243.3,108.3L243.3,108.3z"/>
<path class="st0" d="M263.5,32.5c0.2,0.5-1.2,1.6,0.4,1.4c1.6-0.2,2.9,0.8,4.6,0.9c6.5,0.1,9.8,4.8,12.9,9.6
	c2.3,3.5,4.8,6.9,7.1,10.4c0.3,0.4,0.3,1,0.4,1.5c-0.4-0.2-0.9-0.3-1.3-0.5c-5.2-3.1-10.3-6.4-15.6-9.3c-2.4-1.3-5.2-2-7.8-2.8
	c-1-0.3-2-0.7-2.4-1.7c-1.2-3-2.3-6.1-3.4-9.1c-0.3-0.8-0.1-1.7,0.9-1.9C261.1,30.4,262.6,30.7,263.5,32.5L263.5,32.5z"/>
<path class="st0" d="M237.1,33.3c-1.6,1.7-2.6,3.7-3.6,5.8c-1.3,3-2.9,5.9-4.3,8.8c-0.4,0.8-1.1,1.1-1.9,1.4
	c-6.4,2.4-12.9,4.8-19.3,7.1c-0.2,0.1-0.6,0-0.8,0c0.2-0.3,0.4-0.7,0.7-0.9c3.7-2.9,7.1-6.4,10.3-9.8c3.1-3.3,5.9-6.8,9.6-9.7
	c2.3-1.8,5-2.7,7.8-3.3C236.1,32.5,236.8,32.3,237.1,33.3z"/>
<path class="st0" d="M317.8,121.8c-2.9,7.4-5,15.5-12.8,20c-2.4,1.4-4.5,3.3-6.7,5c-0.6,0.4-1.3,0.9-1.9,0.3c-0.6-0.6,0-1.2,0.3-1.7
	c3.3-6.1,7.3-11.9,8.7-18.9c0.1-0.5,0.6-1.2,1.2-1.4c3.4-1.2,6.3-3.6,9.9-4.6C317.8,119.9,317.9,120.5,317.8,121.8z"/>
<path class="st0" d="M314.8,109.7c-2.1-0.7-4.8,1.7-6.6-0.2c-1.7-1.7,0.1-4.5-0.4-6.8c-0.7-3.3-1.2-6.7-1.8-10.1
	c-0.1-0.8-0.5-1.6,0.9-1.6c3.2-0.1,10.6,4.9,10.6,8c0,2.8,1.2,5.4,1.2,8.1C318.8,110.4,317,109.9,314.8,109.7z"/>
<path class="st0" d="M288.4,166.9c-1.6-0.7-1.7,0.6-2.3,1.1c-0.7,0.6-1.5,1.5-2.5,0.7c-1-0.7-0.4-1.6,0.3-2.2c2.7-2.5,3.6-6.3,7-8.5
	c2.1-1.4,3-4.4,5.6-5.8c1.3-0.7,2.6-0.7,3.8-1.4c0.2-0.1,1,0.3,0.7-0.4c-0.8-1.5-0.7-2.6,1.1-3.2c1.8-0.7,3.4-1.3,4.4-3.2
	c0.3-0.7,1.4-1.5,2.2-1c1,0.6,0.1,1.6-0.2,2.3c-2.5,7.5-8.3,12.4-13.7,17.6C292.8,164.5,290.9,166.4,288.4,166.9z"/>
<path class="st0" d="M326.4,89.1c-7-1.3-10.7-5.9-12.8-12.5c-1.4-4.3-3.1-8.5-5.3-12.5c-0.3-0.5-0.6-1.6-0.4-1.7
	c0.7-0.5,1,0.4,1.5,0.8c5.3,4.6,8.9,10.5,12.8,16.2c2.7,3.8,5.1,7.8,7.7,11.7c0.1,0.1,0.2,0.3,0.3,0.4c0.4,1.5,0.7,3.1,1,4.6
	c-0.2,0-0.5,0-0.6,0c-0.7-1.7-3.1-2.5-2.8-4.6c0.2-1.7-1-0.6-1.4-0.9c-0.4-0.3-1.2-0.2-1.1-1C325.2,89.3,326,89.2,326.4,89.1
	L326.4,89.1z"/>
<path class="st0" d="M225.7,169.9c1.3,2.3,1.8,4.9,2.7,7.3c0.2,0.7,0.8,1.3,0.1,2c-0.6,0.5-1.2,0.2-1.8,0c-3.4-1.3-7.3-2-10.2-4.2
	c-3-2.2-5.1-5.7-7.4-8.7c-1.3-1.6-2.3-3.5-3.4-5.2c-0.2-0.4-0.1-0.9-0.2-1.3c0.4,0.1,1,0,1.3,0.3c2.3,2.1,5.8,2.6,7.6,5.3
	c0.3,0.5,0.8,0.2,1,0.3c3.2,1.2,6.3,2.5,9.4,3.8C225.2,169.6,225.4,169.7,225.7,169.9z"/>
<path class="st0" d="M249,37.1c0,5.5,0,5.2-5.4,6.5c-3.4,0.8-7,1.2-10.1,3.2c-0.3,0.2-0.7,0.1-1.1,0.1c0-0.4-0.2-0.9,0-1.1
	c3-4.2,4-9.9,9.1-12.7c1.9-1.1,3.9-1.3,5.9-1.4c1.2-0.1,1.6,0.6,1.6,1.6C249,34.6,249,35.8,249,37.1z"/>
<path class="st0" d="M181.7,109.6c3.5-0.3,5.3,0.6,5.6,3.9c0.3,4.4,0.7,8.9,2.1,13.2c0.2,0.5,0.1,1.2-0.2,1.6
	c-0.6,0.6-1.1,0-1.7-0.3c-0.3-0.1-0.5-0.4-0.8-0.5c-8.7-2.1-7.9-9.9-9.2-16.1C177,109.1,180.7,110.5,181.7,109.6z"/>
<path class="st0" d="M160.7,94.7c2.3-6.6,4.7-13.4,9.5-19c2.6-3,5-6,7-9.4c1.2-2.1,3.3-3.2,4.9-4.8c0.2-0.2,0.5-0.1,0.8-0.2
	c-0.1,0.3-0.1,0.6-0.3,0.8c-3.5,4.8-5.5,10.2-7.3,15.7c-1.1,3.3-4.4,4.7-6.1,7.6c-2.1,3.6-4.5,6.9-6.8,10.3
	c-0.3,0.4-0.8,0.6-1.3,0.9C161.1,96.1,161,95.5,160.7,94.7z"/>
<path class="st0" d="M288.4,46.5c0.3,0.2,0.5,0.3,0.7,0.4c4.1,4.5,10,7.2,13.5,12.3c3.6,5.3,5.6,11.4,8.5,17.1
	c0.1,0.3,0,0.7-0.1,1.1c-0.3-0.2-0.7-0.3-1-0.5c-5.3-5.7-11.5-10.6-14.7-18.1c-1.7-4-5.4-6.9-7-11c-0.1-0.4-0.3-0.7-0.4-1.1
	C287.9,46.7,288.3,46.6,288.4,46.5z"/>
<path class="st0" d="M264.4,178.1c-1.3-0.1-2.4-0.8-1.7-2c1.1-1.8,2.3-3.7,3.1-5.4c2.3-5.5,8.2-3.7,11.7-6.4
	c1.5-1.2,2.8-2.6,4.3-3.9c0.7-0.6,1.6-1.6,2.5-0.9c1.1,0.9-0.2,1.7-0.7,2.4c-1.4,2.2-2.9,4.4-4.4,6.5
	C275.6,173.8,270.6,177,264.4,178.1z"/>
<path class="st0" d="M252.8,180.4c-1.6,0.6-3.4-0.3-5.3,0.6c-1,0.5-3.5,0.3-3.1-1.7c0.4-1.7-1.8-4.5,2.2-5.5
	c2.9-0.7,5.7-2.6,8.8-3.5c1.4-0.4,2.9,0.4,4-0.8c0.7,1,3.1,0.5,2.2,3.2C259.2,179.8,259.4,179.9,252.8,180.4z"/>
<path class="st0" d="M186.6,96.4c0,3.3,0,6.5,0,9.8c0,1.6-0.6,2.2-2.2,1.8c-0.8-0.2-1.7-0.2-2.6-0.2c-1.8,0-4.3,1.5-5.1-0.2
	c-1.3-2.7-1.2-5.9-0.6-8.9c0.1-0.6,1.2-1.2,2-1.5c2.1-1,4.2-1.8,6.3-2.8C186.6,93.4,187.4,94.1,186.6,96.4z"/>
<path class="st0" d="M248.7,102.6c3.1-3.3,7.1-1.9,10.7-1.6c2.9,0.3,5.9-0.5,8.8,1.1c0.8,0.5,1.8-0.9,2.4-1.7c1-1.2,1.3-3.1,0.6-4.1
	c-1.1-1.6,0.6-2.8,0-4.1c-0.1-0.2,0.8-0.1,1.3,0c1.7,0.4,2,1.7,2.1,3.1c0.2,2.7,0.1,5.3,0.2,8c0.1,2.2-1.2,3.1-3.1,2.9
	c-3-0.5-6.2,0.3-9.1-1.2c-2.5-1.3-5.3,1.4-7.8-0.4C252.8,103.2,250.5,103.4,248.7,102.6L248.7,102.6z"/>
<path class="st0" d="M302.4,72.4c0.2,0.1,0.5,0.2,0.6,0.3c3.3,4.6,8.7,7.4,11,12.8c0.6,1.5,1.2,3,1.8,4.5c0.2,0.5,0.6,1,0,1.5
	c-0.5,0.5-1.1,0.2-1.6,0c-2.6-1.1-5.1-2.2-7.6-3.4c-3.4-1.7-2.6-5.4-3.6-8.2c-0.7-1.9-0.8-4.1-1.1-6.1
	C301.7,73.3,301.5,72.6,302.4,72.4z"/>
<path class="st0" d="M188.1,144.5c1.1,0.8,2.2,1.4,3.1,2.2c4.5,4.2,8.3,8.8,11,14.5c1.6,3.4,3.8,6.8,6.6,9.6
	c0.6,0.6,1.7,1.3,0.9,2.1c-0.5,0.5-1.5-0.1-2.1-0.7c-5.2-6-11.9-10.6-15.2-18.2c-1.2-2.7-2.9-5.1-4.3-7.7
	C187.7,145.7,187.2,145,188.1,144.5z"/>
<path class="st0" d="M244.6,194.3c-1.4-2.3,0.4-5-0.1-7.8c-0.6-3.3,2.6-2.4,4.1-3c2.2-0.8,4.7-0.8,7-1.2c1.5-0.2,2.2,0.4,1.3,1.7
	c-3.1,5-6.7,9.6-10.7,13.8c-0.1,0.2-0.7,0.2-0.8,0.1C244.3,197.2,244.4,195.9,244.6,194.3z"/>
<path class="st0" d="M242.3,174.5c-0.1,0.4-0.2,0.9-0.3,1.3c-1,5.5-1,5.3-6.6,5.2c-3-0.1-3.1-2.3-3.9-4c-2.8-6-2.4-6.8,4-6.3
	c1.7,0.1,3.4,0.7,5.1,1.1C242.1,172.2,242,173.4,242.3,174.5z"/>
<path class="st0" d="M194.9,145.3c0-0.1-0.1,0.4-0.2,0.4c-0.4,0-1,0-1.3-0.3c-4.9-4-10.5-7.4-11.4-14.5c-0.1-0.8-0.8-1.7,0-2.4
	c0.7-0.6,1.2,0.5,1.9,0.6c6.3,1.2,8.3,5.9,9.5,11.3C193.8,141.9,194.3,143.4,194.9,145.3z"/>
<path class="st0" d="M312.2,111.3c1.3,0.1,2.3-0.1,3,0.3c1.1,0.4,3.1-0.7,3.2,1.5c0.1,2.1,0.7,4.6-2.2,5.6c-2.8,1.1-5.6,2.3-8.4,3.5
	c-1,0.4-1,0.4-1.2-0.9c-0.4-2.8,0.4-5.4,0.8-8C307.9,110.5,310.8,111.6,312.2,111.3z"/>
<path class="st0" d="M176.4,120c0.9,2.3-0.8,1.4-2.2,0.7c-4.6-2.4-8.4-5.7-11.2-10.1c-1-1.5-0.3-1.9,1.1-1.7
	c2.9,0.3,5.9,0.6,8.8,1.1c1.4,0.2,1.8,1.5,2.1,2.6C175.5,114.7,175.8,117,176.4,120z"/>
<path class="st0" d="M331.3,115.1c-0.5,1-0.7,2.2-1.4,3c-4,4.5-7.5,9.5-12.3,13.2c-0.5,0.3-1,1.1-1.6,0.6c-0.6-0.5,0-1.2,0.3-1.7
	c1.7-3.4,3.4-6.7,4.4-10.4c0.8-3,4.3-2.9,6.4-4.5c0.7-0.6,1.7-0.8,2.6-1.2c0.4-0.2,0.9-0.2,1.3-0.3
	C331,114.1,331.1,114.5,331.3,115.1z"/>
<path class="st0" d="M160.8,114.6c2-1.3,3.1,1.2,3.4,1.7c2.8,4.2,7.5,5.6,11.4,8.1c3.2,2.1,3.1,5.4,4.5,8.2c0.5,1-0.9,0.8-1.4,0.4
	c-5.2-4.4-11-8.2-15.7-13.2C161.6,118.4,161.1,116.5,160.8,114.6L160.8,114.6z"/>
<path class="st0" d="M173.6,86.6c-1.7,2.7-1.2,6.1-1.3,9.5c0,1.2-0.6,2-1.6,2.5c-2.9,1.5-6.1,2.4-8.9,4.2c-1.2,0.8-1.6-0.3-1.3-1.3
	c0.4-1,0.9-2.1,1.6-2.9c3.9-3.8,6.3-8.8,9.6-13c0.4-0.5,0.6-1.3,1.5-0.9C173.8,85,173.6,85.7,173.6,86.6z"/>
<path class="st0" d="M269.4,179.1c0.1,0,0.3,0.1,0.6,0.1c-0.1,0.4-0.1,0.9-0.3,1.1c-3.8,3.5-5.9,8.5-10.4,11.4
	c-1.2,0.8-1.8,2.4-2.7,3.6c-0.7,0.9-1.6,1-2.6,0.5c-0.9-0.6-0.5-1.4-0.3-2.1c0.8-2.3,3.2-3.7,3.7-5.7c1.5-6.3,6.7-7,11.4-8.6
	C269,179.3,269.2,179.2,269.4,179.1z"/>
<path class="st0" d="M240.9,185.8c0.3,4.3,0.5,8,0.8,11.7c0,0.5,0.3,1.3-0.4,1.4c-0.4,0.1-1.2-0.2-1.5-0.6c-3.3-4-4.1-9.1-5.9-13.7
	c-0.1-0.2,0.1-0.7,0.2-0.8c2-1.1,4-0.3,6,0.2C241.7,184.4,241,185.5,240.9,185.8z"/>
<path class="st0" d="M325.7,110.3c-2.9,0.2-4.9-0.4-4.5-4.1c0.2-1.4-0.3-2.8-0.4-4.3c-0.1-0.7-0.7-1.7,0.2-2.2
	c0.9-0.4,1.9-0.1,2.7,0.6c2.5,2.1,5,4.1,7.4,6.4c1.2,1.1,1.3,2.5-0.8,2.9C328.7,110,327.2,110.1,325.7,110.3z"/>
<path class="st0" d="M234,103.1c-2.4,0.3-2.1-0.9-2.4-2.9c-0.4-3.2-0.4-6.5-0.9-9.7c-0.2-1.4,0-2.7-0.1-4c0-0.8,0.5-1.2,1.2-1.1
	c0.8,0.1,1.1,0.7,0.9,1.4c-0.2,0.8-0.7,1.5-0.3,2.3c0.3,0.5-0.5,1.4,0.5,1.6c0.9,0.2,0.9-0.7,1.1-1.3c0.2-0.4,0.4-1,0.9-0.8
	c0.3,0.1,0.7,0.9,0.6,1.1c-1.4,2.7,0.9,5.6-0.5,8.2c-0.4,0.8,0.1,1.3,0.6,1.9c0.6,0.7,1.9,0.6,2,1.8
	C236.2,101.4,235.8,103.9,234,103.1z"/>
<path class="st0" d="M253.5,43c-2,0.3-3-0.7-2.7-3c0.2-2.3,0.3-4.6,0.4-6.9c0-0.9,0.3-1.6,1.3-1.7c0.9-0.1,2.1-0.2,2.3,0.9
	c0.4,2.6,2.2,4.5,3.2,6.7C259.4,42.1,258.5,42.9,253.5,43z"/>
<path class="st0" d="M234.2,70.5c4.3-1.9,8.8-2,13.3-1.3c0.5,0.1,1.3-0.3,1.2,0.6c0,0.4-0.9,1-1.3,0.9c-3.2-0.6-6.4,0.3-9.5,0.5
	c-3.3,0.2-4.4,1.9-3,5c0.4,1,0.8,1.9-0.4,2.7c-0.6,0.4-0.6,1.1-0.5,1.7c0,0.6,1.3,1.3,0.3,1.8c-0.8,0.3-1.9,0.1-2.8-0.2
	c-1-0.4,0.3-1.1,0-1.8c-1.1-2.4,0.1-5.1-0.4-7.5c-0.3-1.8,0-2.6,1.9-2.5C233.3,70.3,233.8,70.3,234.2,70.5z"/>
<path class="st0" d="M173.4,106.2c0.3,1.7-0.6,2.1-2.1,1.9c-3.1-0.4-6.1-0.8-9.2-0.9c-1.5-0.1-1.4-0.5-0.8-1.5c0.6-1,1.6-1.5,2.6-2
	c1.1-0.5,2.2-0.9,3.3-1.4C173.2,99.6,173.2,99.6,173.4,106.2z"/>
<path class="st0" d="M230.4,191.3c-3.2-2.4-6-5-7.9-8.5c-0.2-0.4,0-1.2-0.2-1.3c-0.9-0.6-2.1-0.7-2.1-2.1c1,0.4,2,0.8,3.1,1.1
	c4.4,1,8,2.8,8,8C231.2,189.2,234.9,191.7,230.4,191.3L230.4,191.3z"/>
<path class="st0" d="M323,93.9c4.2,0.6,5.7,4.5,8.5,6.9c0.7,0.6,0.9,1.7,0.3,2.4c-0.8,0.9-1.4-0.3-1.9-0.7c-3.2-2.6-6.5-5.2-9.6-7.8
	c-1.4-1.2-1.5-4-2.2-6c0-0.1,0.6-0.4,0.6-0.4c1.5,1.5,2.9,3.1,4.3,4.6C323.3,93.3,323.3,93.6,323,93.9z"/>
<path class="st0" d="M310.9,146.4c-1,0-0.8-0.7-0.6-1.2c1.3-3.7,2.4-7.5,6.5-9.3c1.9-0.8,1.7-3.5,3.7-4.2c0.4-0.1,0.7-0.2,1.1-0.3
	c0,0.4,0.2,0.8,0.1,1.1c-2.8,4.8-5.6,9.7-9.9,13.3C311.4,146,311.1,146.2,310.9,146.4z"/>
<path class="st0" d="M267.9,111.3c-4.3,0-9,0-13.8,0c-1.2,0-2.4,0.1-3.5-0.2c-1.2-0.3-1.5-1.5-1.1-2.5c0.4-1.3,1.2-0.1,1.7-0.1
	c2.1,0,4.3,0.5,6.2,0.2c4.4-0.6,8.3,2.1,12.6,1.2c0.4-0.1,1,0,0.8,0.5C270.5,111.7,269.3,110.9,267.9,111.3z"/>
<path class="st0" d="M258.2,83.8c0.8,1.8,2.7,3.1,2.7,5.3c0,0.6,0.5,0.6,0.9,0.6c1.2-0.1,1.4-1.1,1.9-1.9c0.3-0.6,0.2-2.3,0.8-1.8
	c1.1,0.8,0.5,2.5,0.6,3.9c0.1,1-0.2,0.8-1.1,0.9c-1.8,0.1-4.1-1.5-4.9-1c-2.3,1.6-3.9-0.4-5.9-0.3c-0.5,0-1.2-0.2-1.5-0.5
	c-0.5-0.8,0.4-0.8,0.9-1.1c1.5-0.8,0.5-2.4,1-3.5c0.3-0.8,0.4-1.9,1.6-1.8c1.1,0.1,0.7,1.2,0.8,2c0.1,0.6-0.1,1.1,0,1.7
	c0.1,0.7,0.3,1.6,1.3,1.3c0.7-0.2,0.9-0.8,0.6-1.5C257.5,85.3,257.9,84.6,258.2,83.8L258.2,83.8z"/>
<path class="st0" d="M267.9,186.5c2.7-3.1,5.9-5.9,8.2-9.1c2.7-3.6,6.3-4.6,9.9-6.2c0.3-0.1,0.6-0.1,0.9-0.1
	c-0.2,0.3-0.4,0.7-0.7,0.8c-4.7,1.7-7,6.4-10.9,9.2C272.8,183,271.1,185.7,267.9,186.5L267.9,186.5z"/>
<path class="st0" d="M221.2,33.2c-0.2-0.1-0.4-0.2-0.6-0.4c0.2-0.2,0.4-0.4,0.7-0.5c7.2-2.7,13.8-6.9,21.4-8.7
	c0.4-0.1,0.7-0.1,1.1-0.1c0.1,0.7-0.5,0.9-1,1.2c-3.2,1.6-7,2.6-9.6,4.7C229.5,32.5,225.2,31.8,221.2,33.2z"/>
<path class="st0" d="M245.3,78.1c0.3-2.4,3.2-4.6,5.7-4.1c0.3,0.1,0.7,0.2,0.8,0.4c0.2,0.5,0.3,1.5,0.2,1.5
	c-1.7,0.6-2.3,2.2-3.4,3.2c-0.4,0.4-0.9-0.5-1.1-1.2c-0.1-0.3-0.3-0.5-0.5-0.8c-0.3,0.4-0.5,0.7-0.7,1.1c-0.2,0.4,0,1.1-0.7,1
	C245,79.2,245.2,78.5,245.3,78.1z"/>
<path class="st0" d="M246.7,29.6c-0.7-0.3-1.9,1.1-2.4-0.2c-0.4-1,0.9-1.6,1.4-2.3c0.6-0.8,1.1-1.6,1.7-2.3c0.3-0.4,0.6-1.2,1.3-0.9
	c0.8,0.4,0.2,1.1,0.1,1.7c-0.1,0.5-0.6,0.7,0,1.6C249.3,27.8,249.6,30.4,246.7,29.6z"/>
<path class="st0" d="M255.6,74.8c0.8,0.6,2.6-0.1,2.5,1.6c-0.2,1.9-0.2,4.2-2.1,5.3c-1.3,0.7-1.2-0.8-0.9-1.6c0.5-1.5,0.9-2.9-0.7-4
	c-0.2-0.1-0.3-0.6-0.2-0.8C254.5,74.5,255.1,74.8,255.6,74.8z"/>
<path class="st0" d="M259.5,27.6c-0.2,0.2-0.4,0.7-0.9,0.9c-0.6,0.3-1.3,0.3-1.7-0.3c-1.3-1.9-2.6-3.8-3.8-5.8
	c-0.3-0.5-0.2-1.5,0.4-1C255.6,23.3,257.4,25.4,259.5,27.6z"/>
<path class="st0" d="M257.1,69.9c1.1,0.1,1.4,0.1,1.7,0.2c1.5,0.2,3-0.7,4.4,0.2c-1.2,1.6-3,1-4.5,1.3c-1.8,0.4-3.8,0.5-5.6-0.5
	c-0.4-0.2-0.7-0.6-1-0.9c0.4-0.1,0.8-0.3,1.3-0.3C254.9,69.9,256.4,69.9,257.1,69.9z"/>
<path class="st0" d="M265.4,97.8c-0.4,0-0.6,0-0.8,0c-1.2-0.1-3.2,1.1-3.5-0.7c-0.2-1,1.9-1.3,3.2-1.4c0.4,0,0.8-0.2,1-0.5
	c0.5-0.6-0.4-2.4,0.7-1.9c1.1,0.4,1.9,2.2,1.7,3.7C267.4,98.8,265.9,97.4,265.4,97.8z"/>
<path class="st0" d="M242.6,73.9c0.3,0.1,0.6,0.1,0.8,0.2c0.9,0.5,0.6,1.2,0.3,1.9c-0.9,1.8-0.1,4.1-1.7,5.7c-0.1,0.1-0.3,0-0.4-0.1
	c-1.4-1.3-0.4-2.8-0.1-4C241.7,76.4,240.8,74.6,242.6,73.9z"/>
<path class="st0" d="M321,113.8c0.4-3.1,2.7-1.9,4.3-2.1c0.6-0.1,2,0,1.5,0.8c-1.1,1.6-3.1,2.2-4.9,2.7
	C320.8,115.6,321.1,114.3,321,113.8z"/>
<path class="st0" d="M271.3,80c-1.1,0-2.6-0.6-2-1.6c0.8-1.3-1.2-3.4,0.7-3.4c2,0,2.1,2.5,2.6,4C273.1,80,272.1,80,271.3,80z"/>
<path class="st0" d="M275.6,110.9c-0.9-0.3-3.1,1.1-3.2-0.3c-0.1-1.2,2.2-0.1,3.4-0.4c0.7-0.2,1.6,0,2.1-0.8
	c0.3-0.5,0.7-0.9,1.3-0.8c0.2,0.1,0.5,0.4,0.5,0.7c0.1,0.7-0.4,1.1-1,1.4C277.7,111.2,276.8,111.2,275.6,110.9z"/>
<path class="st0" d="M230.4,191.3c1.7,0.6,3.3,1.2,4.1,3c0.2,0.4,0.1,0.9,0.1,1.3c-0.3,0-0.7,0.1-0.8,0
	C232.6,194.2,230.5,193.6,230.4,191.3C230.4,191.3,230.4,191.3,230.4,191.3z"/>
<path class="st0" d="M269.7,72.6c0,0.5-0.2,1.2-0.7,0.8c-1-0.7-1.9-1.6-2.6-2.6c-0.3-0.5,0.4-0.7,0.9-0.7
	C268.9,70.2,269.5,71.3,269.7,72.6z"/>
<path class="st0" d="M252.8,96.1c0.1,1.5,0,2.4-1.4,2.5c-0.7,0-0.9,0-0.8-0.8c0.2-1.3,1.2-2.1,1.7-3.2
	C252.6,95.3,252.8,95.9,252.8,96.1z"/>
<path class="st0" d="M242.1,104.3c-0.8-0.4-1.9-1.1-1.6-1.7c0.4-0.7,1.5-1,2.4-1.3c0.4-0.1,1.1,0.5,0.9,0.8
	C243,102.6,243.2,104,242.1,104.3z"/>
<path class="st0" d="M232.5,84.8c-0.5-0.1-1.4,0.1-1.2-0.6c0.2-0.8,1.2-0.8,2-0.8c0.5,0,1.4-0.1,1.2,0.6
	C234.2,84.9,233.2,84.7,232.5,84.8z"/>
<path class="st0" d="M258.3,83.8c0-0.1,0-0.2,0-0.2c0-1.1,0.4-2.1,1.5-2.5c0.5-0.2,0.7,0.2,0.7,0.7C260.3,83,259.6,83.8,258.3,83.8
	C258.2,83.8,258.3,83.8,258.3,83.8z"/>
<path class="st0" d="M253.4,197.6c-0.6,1.4-1.5,1.1-2.4,0.5c-0.6-0.4-0.4-1,0-1.4C252.4,195.5,252.6,197.4,253.4,197.6L253.4,197.6z
	"/>
<path class="st0" d="M260.6,77.1c0.7,0,0.8,0.3,0.8,0.8c0,0.8-0.5,1.3-1.1,1.7c-0.4,0.2-0.7,0-0.6-0.4
	C260,78.4,260.4,77.7,260.6,77.1z"/>
<path class="st0" d="M248.6,102.5c-0.2,1.6-1.7,1.1-2.7,1.6c-0.6-1.3,1.3-1.1,1.3-2.1l0,0C247.7,102.2,248.2,102.4,248.6,102.5
	C248.7,102.6,248.6,102.5,248.6,102.5z"/>
<path class="st0" d="M258.1,94.9c-0.3,0.2-0.6,0.6-1,0.6c-0.5,0.1-0.9-0.4-0.8-0.9c0.1-0.6,0.6-0.6,1.1-0.6
	C257.9,94,258.2,94.2,258.1,94.9z"/>
<path class="st0" d="M251.5,84.6c-0.8-0.4-0.6-0.9-0.4-1.2c0.3-0.5-0.2-1.5,0.8-1.4c0.6,0.1,0.6,0.9,0.4,1.4
	C252.1,83.8,251.7,84.2,251.5,84.6z"/>
<path class="st0" d="M234.2,70.5c-0.4,0-0.8,0-1.2,0c-0.3-0.3-0.6-0.6-0.9-0.9C232.9,69.3,233.7,69.5,234.2,70.5z"/>
<path class="st0" d="M247.2,102.1c-0.7,0-1.4,0.7-1.9-0.1c-0.1-0.2,0.1-0.8,0.3-0.9C246.6,100.7,246.7,101.7,247.2,102.1
	C247.2,102.1,247.2,102.1,247.2,102.1z"/>
<path class="st0" d="M239.1,77.1c-0.7,0-1.2-0.4-1-1.2c0-0.2,0.5-0.4,0.7-0.4C239.5,75.9,239.2,76.5,239.1,77.1L239.1,77.1z"/>
<path class="st0" d="M252,29.7c-0.3-0.4-0.5-0.6-0.8-0.9c0.2-0.1,0.5-0.5,0.6-0.4c0.3,0.1,0.6,0.4,0.8,0.7
	C252.5,29.2,252.3,29.4,252,29.7z"/>
<path class="st0" d="M239,77.1c0.3,0.6,0.4,1.2-0.1,1.7c-0.1,0.1-0.5,0-0.5-0.1C238.1,78,238.7,77.6,239,77.1
	C239.1,77.1,239,77.1,239,77.1z"/>
<path class="st0" d="M261.8,75.4c-0.6,0.3-0.8,0.5-1.1,0.5c-0.2,0-0.3-0.4-0.5-0.6c0.2-0.1,0.4-0.4,0.6-0.3
	C261.1,74.9,261.3,75.1,261.8,75.4z"/>
<path class="st0" d="M279.9,106.6c-0.6,0.5-0.8,0.7-1,0.9c-0.2-0.2-0.5-0.4-0.5-0.7c0-0.2,0.3-0.7,0.3-0.7
	C279.1,106.1,279.4,106.3,279.9,106.6z"/>
<path class="st0" d="M240.2,29.3c-0.3,0.2-0.4,0.4-0.6,0.5c-0.1,0-0.3-0.2-0.5-0.3c0.2-0.1,0.3-0.4,0.5-0.4
	C239.7,29,239.9,29.2,240.2,29.3z"/>
<path class="st0" d="M252.1,77.7c0.1,0.6,0.3,0.8,0.2,0.9c-0.1,0.4-0.3,0.7-0.4,1.1c-0.1-0.1-0.3-0.2-0.3-0.3
	C251.7,78.9,251.8,78.5,252.1,77.7z"/>
<path class="st0" d="M240.3,85.9c-0.3,0.2-0.5,0.4-0.6,0.4c-0.1,0-0.4-0.3-0.3-0.5c0-0.2,0.3-0.4,0.5-0.4
	C239.9,85.4,240.1,85.7,240.3,85.9z"/>
<path class="st0" d="M235.4,87.1c-0.3,0.2-0.5,0.4-0.7,0.3c-0.1,0-0.2-0.3-0.4-0.4c0.2-0.1,0.3-0.3,0.5-0.4
	C235.1,86.7,235.2,86.9,235.4,87.1z"/>
<path class="st0" d="M248.6,81c0.1,0.5,0.2,0.7,0.2,0.9c0,0.1-0.1,0.3-0.2,0.3c-0.2,0-0.4-0.1-0.6-0.1
	C248.1,81.9,248.2,81.7,248.6,81z"/>
<path class="st0" d="M243.4,108.3c-0.5-0.2-0.9-0.4-1.4-0.6c0.1-0.1,0.3-0.3,0.4-0.3C243,107.3,243.4,107.6,243.4,108.3
	C243.3,108.3,243.4,108.3,243.4,108.3z"/>
<path class="st0" d="M270.5,83c-0.1-0.3-0.2-0.5-0.3-0.7c0.2-0.1,0.4-0.2,0.6-0.2c0.1,0,0.3,0.3,0.2,0.3
	C270.9,82.7,270.7,82.8,270.5,83z"/>
<path class="st0" d="M251.7,26c0.1,0.2,0.2,0.4,0.2,0.6c-0.2,0.1-0.3,0.1-0.5,0.2c-0.1-0.2-0.1-0.4-0.1-0.6
	C251.3,26.1,251.5,26,251.7,26z"/>
<path class="st0" d="M253.5,197.6c0.2-0.4,0.3-0.8,0.8-0.7c0.1,0,0.1,0.2,0.2,0.4C254.1,197.4,253.8,197.5,253.5,197.6
	C253.4,197.6,253.5,197.6,253.5,197.6z"/>
<path class="st0" d="M247.9,92.4c-0.1,0.1-0.2,0.2-0.3,0.3c-0.1-0.1-0.3-0.2-0.4-0.4c0.1-0.1,0.2-0.2,0.4-0.2
	C247.7,92.2,247.8,92.3,247.9,92.4z"/>
<path class="st0" d="M243.1,98c-0.5,0.1-0.7,0.2-1,0.2c-0.2,0-0.4-0.2-0.5-0.2c0.2-0.1,0.4-0.2,0.7-0.2
	C242.4,97.8,242.6,97.9,243.1,98z"/>
<path class="st0" d="M262.9,169c-0.2,0.2-0.3,0.4-0.3,0.4c-0.3-0.1-0.6-0.2-0.9-0.3c0.1-0.1,0.2-0.3,0.2-0.3
	C262.2,168.9,262.5,169,262.9,169z"/>
<path class="st0" d="M240.5,96.4c0.1,0.2,0.1,0.4,0.2,0.6c-0.2,0.1-0.4,0.2-0.6,0.2c-0.1,0-0.3-0.1-0.4-0.2
	C239.8,96.8,240,96.7,240.5,96.4z"/>
<path class="st0" d="M239.6,90.4c-0.2,0-0.4,0.1-0.6,0.1c0-0.1-0.1-0.4,0-0.4c0.2-0.1,0.4-0.2,0.6-0.2
	C239.6,90,239.6,90.1,239.6,90.4z"/>
<path class="st0" d="M248.4,84.1c-0.2,0.3-0.3,0.5-0.5,0.5c-0.1,0-0.3-0.2-0.4-0.3c0.1-0.2,0.2-0.4,0.4-0.5
	C247.9,83.8,248.1,84,248.4,84.1z"/>
<path class="st0" d="M245.6,172c0.1,0.1,0.1,0.1,0.2,0.1c-0.1,0.1-0.2,0.2-0.3,0.3c0,0-0.1-0.1-0.2-0.1
	C245.4,172.1,245.5,172,245.6,172z"/>
<path class="st0" d="M323,93.9c0-0.3,0-0.6,0-0.9c0.3,0.1,0.8,0.2,0.8,0.3C323.9,93.9,323.4,93.8,323,93.9z"/>
<path class="st0" d="M239.7,87.4c0.1,0.1,0.2,0.1,0.3,0.2c0,0,0,0.2,0,0.2c-0.1,0-0.2,0-0.3,0C239.6,87.7,239.6,87.6,239.7,87.4z"/>
<path class="st0" d="M159.1,131.3c-0.1-0.1-0.2-0.2-0.2-0.3c0.2-0.1,0.3-0.2,0.5-0.2c0,0.1,0.1,0.3,0.1,0.4
	C159.4,131.2,159.2,131.2,159.1,131.3z"/>
<path class="st0" d="M263.5,32.5c0.4-0.1,0.7-0.1,1.1-0.2c0,0.1,0,0.3,0,0.4C264.3,32.6,263.9,32.5,263.5,32.5
	C263.5,32.5,263.5,32.5,263.5,32.5z"/>
<path class="st0" d="M249.7,199.6c-0.1,0.1-0.2,0.3-0.3,0.3c-0.1,0-0.2-0.1-0.3-0.2c0.1-0.1,0.1-0.3,0.3-0.3
	C249.4,199.4,249.5,199.5,249.7,199.6z"/>
<path class="st0" d="M160.8,114.5c-0.2-0.3-0.4-0.6-0.6-1c0.1-0.1,0.2-0.1,0.4-0.2C160.6,113.8,160.7,114.2,160.8,114.5
	C160.8,114.6,160.8,114.5,160.8,114.5z"/>
<path class="st0" d="M267.8,186.5c0,0.3,0,0.7,0,1c-0.1,0-0.3-0.1-0.4-0.1C267.6,187.2,267.7,186.9,267.8,186.5
	C267.9,186.5,267.8,186.5,267.8,186.5z"/>
<path d="M247.9,162.5c-0.1-0.2-0.2-0.3-0.2-0.5c0,0,0.3-0.2,0.3-0.1c0.1,0.1,0.2,0.3,0.3,0.5C248.3,162.3,248.1,162.4,247.9,162.5z"
	/>
<path d="M258,62.5c-0.4,0.2-0.6,0.3-0.8,0.3c-0.2,0-0.3-0.1-0.5-0.2c0.2-0.1,0.4-0.2,0.6-0.3C257.4,62.3,257.6,62.4,258,62.5z"/>
<path d="M296.8,156.8c-0.1-0.1-0.2-0.1-0.3-0.2c0.1-0.1,0.2-0.3,0.3-0.4c0.1,0.1,0.2,0.2,0.2,0.3
	C297.1,156.6,296.9,156.7,296.8,156.8z"/>
<path d="M297.8,155c-0.1-0.2-0.2-0.3-0.3-0.5c0.2-0.1,0.4-0.3,0.6-0.3c0.1,0,0.2,0.3,0.3,0.4C298.3,154.7,298.1,154.8,297.8,155z"/>
<path d="M326.4,89.1c0.4,0.1,0.8,0.2,1.3,0.3c-0.1,0.1-0.2,0.2-0.3,0.2C326.8,89.8,326.3,89.9,326.4,89.1
	C326.4,89.1,326.4,89.1,326.4,89.1z"/>
<path d="M251,174.3c-0.1,0.1-0.2,0.2-0.3,0.3c-0.1-0.2-0.2-0.3-0.2-0.5c0.1,0,0.3-0.2,0.4-0.1C250.9,174,251,174.2,251,174.3z"/>
<path d="M245.5,175.6c0.1-0.2,0.2-0.3,0.3-0.3c0.1,0,0.3,0.1,0.4,0.2c0,0.1,0,0.2-0.1,0.4C245.9,175.8,245.7,175.7,245.5,175.6z"/>
<path d="M173.5,124.4c-0.7,0.1-1,0.2-1.3,0.2c-0.2,0-0.4-0.1-0.6-0.1c0.3-0.1,0.6-0.3,0.9-0.3C172.6,124.1,172.8,124.2,173.5,124.4z
	"/>
<path d="M233.4,95.2c0.1,0,0.1,0,0.2,0c0,0.1-0.1,0.2-0.1,0.3c-0.1,0-0.2-0.1-0.2-0.1C233.3,95.3,233.4,95.3,233.4,95.2z"/>
</svg>
