<?xml version="1.0" encoding="utf-8"?>
<!-- Generator: Adobe Illustrator 19.2.1, SVG Export Plug-In . SVG Version: 6.00 Build 0)  -->
<svg version="1.1" id="Layer_1" xmlns="http://www.w3.org/2000/svg" xmlns:xlink="http://www.w3.org/1999/xlink" x="0px" y="0px"
	 viewBox="0 0 539.5 233.7" style="enable-background:new 0 0 539.5 233.7;" xml:space="preserve">
<style type="text/css">
	.st0{fill:#FFFFFF;}
</style>
<path d="M257.4,65.9c-1.2-0.5-2.4,0-3.5,0.2c-1.4,0.2-3.1,0.4-4-0.4c-3.6-3.4-6.1-0.5-9.2,1.1c-4.5,2.3-9.4,2.3-14.1,0.6
	c-0.8-0.3-1.9-0.9-2-1.6c-0.6-3.6-2.8-2.1-4.4-1.3c-6.2,2.9-12.8,4.9-19.5,6.2c-3.8,0.8-7.9,1.9-10.3-2.7c-0.6-1.1-1.5-0.5-2.3-0.2
	c-5.7,1.9-11.4,3.6-17.4,4.2c-2.9,0.3-5.6,0.1-8.1-1.8c-1.8-1.4-3.8,0.4-5.6,1c-6.5,2.4-13,2-19.5-0.1c-3.3-1.1-3.2-4-2.7-6.8
	c0.1-0.4,0.2-0.9,0.2-1.3c-0.5,0.1-0.9,0.2-1.4,0.3c-8.3,2.8-16.6,4.8-25.5,4c-2.1-0.2-3.5-1.3-4.6-3c-0.7-1.1-0.3-3.4-3.1-0.9
	c-1.9,1.7-5.5,2.9-8.8,3c-2.9,0-5.7-0.1-8.5-1.1c-0.2-0.1-0.6-0.1-0.7-0.2c-2.5-5.4-6.4-1.6-9.3-1.1c-5.2,1-10.5,1.8-15.7,2.7
	c-1.7,0.3-3.5,0.8-4.2,2.8c-3,8.8-6.7,17.2-10.4,25.7c-4.8,10.8-9.9,21.5-14.9,32.2c-0.1,0.2-0.4,0.4-0.6,0.6c0-0.4,0-0.8,0.1-1.1
	c3-7,6-14,9-20.9c4.9-11.4,9.7-22.9,14.7-34.2c1.4-3.1,0.8-4.9-1.4-7.4c-1.8-2-2.8-2.4-5-0.9c-3,2-6.6,2.8-10.1,3.7
	c-2.1,0.5-4.1-0.4-5.4-2c-1.3-1.6-2.2-3.6-1.1-5.8c0.3-0.7,1.1-1.5,0.5-2.2c-0.6-0.8-1.5,0-2.2,0.2c-2.4,0.6-5,2-6.9-0.5
	c-2-2.6-1.6-5.6,0.3-8.3c1.5-2.2,3.1-4.3,4.7-6.3c0.5-0.6,1.5-1.2,2.1-0.4c0.6,0.7-0.6,0.9-0.9,1.3c-1.4,1.8-3,3.5-4.3,5.4
	c-1.6,2.3-3,4.7-0.6,7.3c2.2,2.5,4.4-0.1,6.7,0c0.2,0,0.4-0.3,0.6-0.3c1.3-0.4,2.8-1.5,3.8-0.4c0.8,1-0.8,2-1.3,3
	c-0.9,1.6-1.7,3.3-0.5,5.2c1.2,1.8,3,2.7,5,2.1c3.2-0.9,6.3-2.1,9.4-3.5c1.2-0.6,1.9-1.9,3.6-1.8c1,0,1.5-0.1,1.8,1.1
	c0.7,3.2,3,4.1,6,3.9c7.8-0.7,15.4-2.4,23-4.3c1.1-0.3,1.7-1.2,2.3-2c0.4-0.6,1-0.9,1.7-0.6c0.6,0.2,0.8,0.7,0.8,1.4
	c-0.1,3.8,2,5.7,6.1,5.4c4.7-0.4,9.4-1.2,12.6-5.3c1-1.3,1.6-0.5,1.9,0.7c1.7,5.3,2.7,5.7,8.2,5.7c7.7-0.1,14.9-2.5,22.2-4.2
	c1-0.2,2.1-0.8,3,0.1c0.9,1-0.1,2-0.5,2.8c-1.3,2.8-0.3,4.9,2.5,5.6c6.8,1.5,13.5,1,20-1.5c0.9-0.3,1.6-1,2.3-1.6
	c0.9-0.7,1.8-0.8,1.9,0.5c0.4,3.1,2.8,3.2,4.9,3.1c6.5-0.3,12.8-2.1,18.8-4.3c1.4-0.5,2.4-1.8,3.2-3.2c0.4-0.7,1.1-1.6,2.1-0.9
	c0.8,0.6,0.7,1.5,0.3,2.4c-1.6,3.4-0.8,4.7,3.1,4.6c8.7-0.1,16.5-3.5,24.2-6.9c0.6-0.3,1.2-0.5,1.7-0.8c3.1-1.9,4.5-1.9,4.1,2.5
	c-0.2,2,3,2.4,4.6,2.5c4.5,0.5,12.5-1.4,14.5-7c0.4-1,1.3-1.4,1.6-0.3c1.3,5.5,5.6,4.4,9.3,4.3c4.2-0.1,8.3-1.4,12-3.5
	c2.3-1.3,5.4-1.4,6.6-4.4c0.3-0.6,1.2-0.9,1.9-0.3c0.8,0.6,0.9,1.4,0.3,2.1c-1.6,1.7-0.6,2.4,1.1,2.9c2.7,0.8,4.9,1.1,7.2-1.5
	c4.4-4.9,10.7-6.2,17-6.5c1.7-0.1,1.6-0.3,0.9-1.5c-1.4-2.2-1.4-4.5-0.1-6.8c3.1-5.5,6.8-10.5,12.8-13.1c3.9-1.7,7-4.4,10.2-7
	c1.8-1.5,1.2-2.7-0.4-3.5c-3.5-1.7-7.2-2.5-11.1-1.9c-3.4,0.6-6.9,1.3-10.3,2c-0.7,0.1-1.5,0.2-2-0.5c-0.6-0.8-0.3-1.7,0.1-2.5
	c3.2-6.3,2.2-8-5.1-8c-8.2,0-15.6,2.9-22.7,6.8c-1,0.5-2,1-3,1.4c-1.9,0.7-3,0.1-3.3-2.1c-0.7-6.4-3.9-8.8-10.2-7.6
	c-6.7,1.2-13.1,3.4-18.9,7.2c-1.4,0.9-3.3,1.1-4.6,2.4c-0.4,0.5-1.7,0.7-2.4-0.3c-0.9-1.2-0.5-2.3,0.2-3.4c0.9-1.4,2-2.7,2.5-4.4
	c0.5-1.7-0.2-2.7-1.9-2.8c-1.7-0.1-3.5-0.2-5.2,0.5c-2.2,1-4.6,1.7-6.7,2.9c-5.6,3.4-11.1,6.9-15.7,11.6c-2.3,2.3-4.5,1.9-5.5-1
	c-0.9-2.4-1.5-4.9-2.1-7.4c-1-3.8-2.4-4.5-6.1-3.5c-7.8,2.1-15.1,5.5-22.5,8.7c-2.1,0.9-4.3,2-6.5,2.3c-3.3,0.4-5.6-1.4-6.6-4.6
	c-0.5-1.6-0.7-3.3-0.8-5c-0.2-5.7-2.4-7.4-8-6.1c-5.6,1.3-10.7,3.7-15.6,6.5c-6.4,3.5-12.8,7.1-18.5,11.8c-1,0.8-2.9,1.8-4.5,0.8
	c-1.6-1.1-1.2-2.8-0.8-4.4c0.5-2.3,1.1-4.7,1.8-7c0.9-3.2-0.7-5.3-4.1-5.1c-5.9,0.5-11.7,1.8-17.2,4C77.9,16,67.8,20.3,57.6,24.4
	c-1.3,0.5-2.8,0.4-4.2,0.5c-1,0-1.1-0.7-1-1.5c0.1-1.2,0.8-2,1.5-2.9c0.8-0.9,1.6-2.1,1-3.2c-0.7-1.3-2.2-0.8-3.2-0.4
	c-10.5,4.4-20.5,9.6-27.9,18.8c-1,1.2-1.7,2.5-1.4,4.2c0.1,0.6,0.8,1.2,0,1.7c-0.2,0.1-0.6-0.1-0.9-0.3c-0.6-0.5-1.1-1.1-0.8-2
	c1-3.1,2.6-6,4.9-8.1c7.8-7.1,17-12,26.8-15.8c1.9-0.7,3.5-0.4,4.5,1c0.8,1.1-0.2,2.6-0.8,3.8c-0.4,0.9-1.7,1.7-1.1,2.6
	c0.7,1,1.9,0,2.9-0.2c5.2-1.4,10-4.2,15-6.1C83,12.4,93.1,8,104.2,6.9c2-0.2,4-0.1,5.8,1.1c3.5,2.5,1.2,5.5,0.5,8.1
	c-0.5,2.1-1.7,4.1-1,6.4c1.7-0.8,3.6-1.5,5.2-2.5c8.7-5.6,17.6-10.8,27.2-14.5c2.1-0.8,4.2-1.5,6.4-2c4.5-1.1,8.8,2.4,8.6,7
	c-0.1,1.6,0,3.2,0.5,4.7c1,3.5,2.9,4.7,6.3,3.4c8.2-3,16.4-6.3,24.6-9.3c1.7-0.6,3.5-1,5.4-1.2c2.9-0.3,4.9,1,5.7,3.9
	c0.6,2.2,1.2,4.5,1.7,6.7c0.5,2.4,1.7,2.4,3.4,1.1c5.6-4,10.7-8.7,16.9-11.8c3.2-1.6,6.6-2.5,10.1-2.8c2.1-0.1,4.3,0.3,5.3,2.5
	c1,2.3,0.2,4.3-1.6,6c-0.3,0.2-0.6,0.8-0.5,0.9c0.4,0.6,0.9,0.1,1.2-0.1c4.2-2.5,8.7-4.6,13.3-6.2c4.1-1.4,8.5-2.4,12.9-2.1
	c4.2,0.2,7.6,3.5,8.1,7.5c0.3,2.7,1.8,1.9,3.2,1.1c7.7-4.1,15.9-6.5,24.6-6.9c1,0,2-0.2,2.9,0.1c5,1.6,7,3.7,4.6,8.7
	c-0.3,0.6-1.3,1.1-0.6,1.8c0.3,0.3,1.3-0.1,2-0.2c5.8-1.1,11.5-2,17.3-0.3c0.3,0.1,0.7,0.1,0.9,0.3c3.5,3.6,6.3,1.4,9.4-0.7
	c3.6-2.5,6.2-1.9,9.1,1.5c1.4,1.6,3,1,4.7,0.5c3.9-1.2,7.8-2.4,11.7-3.7c1.6-0.5,3.3-0.5,4.6,0.7c4.9,4.6,10.1,3.8,15.5,1.3
	c4.3-2,8.9-3,13.5-3.9c3.8-0.7,6.6,0.8,8.5,4c3.7,6.2,7.3,7.9,14.5,6.8c8.3-1.3,16.6-2.4,24.9-3.6c3.2-0.5,6,0,8.1,2.9
	c1,1.4,2.4,1.6,4.1,1c2.7-1,5.4-1.8,8.2-2.7c6-2,11.3-0.2,16.4,3c1.4,0.9,2.7,1.3,4.5,1c3.6-0.5,7,0.2,9.8,2.8
	c1.6,1.5,3.5,2.5,5.2,3.9c1.1,0.9,2.9,1.5,2.6,3.4c-0.3,1.8-1.8,2.8-3.4,3.5c-1.3,0.5-2.7,0.8-4,1.2c1,1.3,2.6,1.3,3.9,2
	c6.1,3.3,9,8.3,7,13c-1.2,2.8-4,4-6.2,5.9c-1.3,1.1-2.6,2-2.3,4.1c0.2,1.3-1.2,1.9-2.3,2.5c-3,1.6-5.7,2.9-7.2,6.7
	c-1.4,3.5-6.9,5.4-11.4,1.9c-3.4-2.6-6.4-2.1-9.7-1.2c-6.1,1.5-12.2,1.1-18.2,0c-3.1-0.6-5.7-2.1-7.7-4.8c-1.1-1.5-2.3-0.2-3.4,0.3
	c-6.7,3.3-13.3,6.9-20.8,8.2c-3.7,0.7-7.3,1.5-11,1.9c-3.1,0.3-6.1,0-8.5-2.3c-1.6-1.4-3.2-1.5-5.1-0.5c-4.1,2.1-8.5,2.5-13,3
	c-2.9,0.3-5.2-0.9-6.5-3.5c-0.8-1.5-1.8-1.5-3.3-1.4c-7.8,0.6-15.7,1.9-23.5-1.1c-2.9-1.1-6,0.2-9,0.5c-2.8,0.3-5.5,0.4-7.9-1.7
	c-1.6-1.3-3.8-0.4-5.7-0.3c-4.9,0.3-9.7-0.8-14.6-1c-2-0.1-3.2-1.9-3.6-4c-1.3-6.3-4.7-8.8-10.9-7.8c-0.9,0.1-1.8,0.2-2.6,0.3
	c-3.2,0.4-4.2,2.8-2.3,5.6c2.2,3.2,5.7,4.8,8.9,6.7c1.3,0.8,2.6,1.6,3.8,2.5c0.7,0.5,1.5,1.1,1.4,2.1c0,0.2-0.6,0.6-0.8,0.6
	c-1.1-0.1-2.8-0.1-3-1.2c-0.5-2.8-2.9-3.2-4.7-4.2c-4.5-2.5-8.4-5.4-9.3-11c-0.2-0.9-1-0.7-1.5-0.7c-2.5-0.1-4.9,0-7.3-1.6
	c-1-0.7-3.5,0.8-5.2,1.4C265.1,63.8,261.4,65.2,257.4,65.9L257.4,65.9z"/>
<path d="M328.6,173c-0.1,1.6-0.2,3.2-0.3,4.8c-1-1.6-1-3.5-1.1-5.3c-0.2-3.6,0.2-7.1,0.7-10.7c0.8-5.7,0-11.5-0.5-17.2
	c-1.1-10.9,1.7-21.1,6.2-30.8c2.1-4.5,6.4-7.6,10.3-10.8c2-1.7,4.5-3.6,5.9-6c2-3.5,3.8-7.2,5.6-10.8c0.4-0.8,0.8-2,1.8-1.4
	c1,0.6,0.1,1.6-0.3,2.3c-1.8,3.6-3.7,7.1-5.5,10.6c-0.3,0.6-0.8,1.3-0.3,2c0.4,0.6,1.2,0.3,1.8,0.2c7.2-1.6,14.3-0.8,21.4,0.7
	c2.4,0.5,3.8,0,4.9-2c1.5-2.6,3.1-5.1,5.5-7.2c1.1-0.9,1.8-1.1,2.9-0.6c1.4,0.6,1.2,1.8,0.8,2.9c-1.1,2.9-2.2,5.8-3.4,8.7
	c-0.5,1.3-0.5,2.2,0.9,2.7c7.1,2.2,12.3,6.9,16.8,12.4c1.2,1.5,1.7,0.3,2.2-0.5c3.5-6.1,7-12.2,10.4-18.3c0.7-1.2,1.4-2.5,2.2-3.7
	c0.4-0.6,1-1.3,1.7-0.9c0.9,0.6,0.1,1.3-0.2,1.9c-3.2,5.5-6.4,10.9-9.5,16.4c-1.3,2.4-2.5,4.8-3.8,7.2c-0.5,0.9-0.3,1.7,0.1,2.5
	c6.2,11.1,4.8,22.3,0,33.4c-1.4,3.3-2.4,6.9-4.3,9.9c-2.3,3.4-4.7,6.8-7.2,10.1c-2.2,2.9-6.5,3.6-7.6,7.5c-0.1,0.4-0.9,0.9-1.3,0.9
	c-5.5,0-9.5,3.2-13.8,6c-0.4,0.3-1,0.6-1.3,0.5c-3.4-1-6.1,1.7-9.3,1.7c-3.1,0-6.2,0.9-9.1-1.4c-1-0.8-2.9-0.7-4.4-0.7
	c-2.8,0-5-1.5-5.5-3.8c-0.8-3.6-3.4-5.9-5.1-8.8c-2.2-3.6-4.2-7.3-5.8-11.3c-0.2-0.6-0.4-1.3-1.2-1.3c-1,0-1.1,0.9-1.1,1.5
	c-0.2,2.3-0.4,4.6-0.6,6.9C328.4,173,328.5,173,328.6,173z"/>
<path d="M139,137.3c4.2-0.4,8.3,0,12.4,0.7c2.9,0.5,4.2-0.4,5.2-2.8c6.3-14.5,13.9-28.3,19.9-42.9c0.6-1.5,1.1-3,1.4-4.6
	c0.2-1.1,1-2.5-0.5-3.2c-1.4-0.7-2.6-0.1-3.6,1.1c-1.8,2.3-3.7,4.6-5.5,6.9c-0.3,0.4-0.6,1.2-1.2,0.9c-0.6-0.4-0.1-1.1,0.2-1.5
	c2.3-3,4.2-6.2,7.1-8.7c1.1-1,2.4-1.8,3.9-1c1.5,0.8,1.5,2.3,1.2,3.8c-1.3,6.7-4.1,12.8-6.9,18.9c-5.6,12-11.2,23.9-16.7,36
	c-2.1,4.5-0.9,9.4-0.7,14.1c0.2,3.2,0.6,6.4,0.5,9.6c-0.2,4.6,0.2,5,4.7,4.2c4.9-0.9,9.9-1.5,14.8-2.1c2.2-0.2,3.1-1.3,3.5-3.2
	c1.2-5.1,3.2-10,5.1-14.9c3.8-9.7,8.6-19,13-28.4c5.7-12.3,11.5-24.6,17.3-36.9c0.5-1.1,0.9-2.2,1.2-3.4c0.2-0.8,0.9-1.8-0.2-2.3
	c-0.9-0.4-1.8,0.3-2.2,1c-1.4,2.3-4.8,3.3-4.3,6.7c-4.4,1.3-5,5.9-7.4,8.9c-1.9,2.4-3.2,5.3-4.8,8c-0.3,0.5-0.8,1.3-1.5,0.9
	c-0.8-0.4-0.1-1.2,0.2-1.6c5.3-8.6,9.8-17.8,17.5-24.6c1-0.9,2-2.2,3.5-1.4c1.7,0.9,1.5,2.7,1.1,4.1c-1.5,4.3-3,8.6-4.9,12.7
	c-4.1,9.3-9.2,18.1-13,27.6c-1.2,3.1-3.1,6.1-4.5,9.2c-5.1,11-10.2,22-14.4,33.4c-0.4,1.2-0.9,2.6-0.3,3.4c0.5,0.7,2.1,0,3.2-0.2
	c2.9-0.5,5.8-1,8.8-1c2.4,0,2.5,2.5,2.2,3.8c-1.2,4.3-0.4,8.5-0.3,12.7c0.1,5.5,2.1,10.8,1.5,16.4c-0.1,1.1-0.1,2.3-1.4,2.5
	c-1.4,0.3-0.8-1.4-1.3-1.7c-2.5-1.5,0.1-3-0.2-4.6c-1.2-7.4-1.9-14.8-1.9-22.3c0-4.5-2.5-5-8.3-3.8c-4.4,0.9-5.3,3.4-5.8,6.9
	c-0.2,1.2-0.7,2.4-1.7,3.3c0.1-1.1,0.2-2.1,0.4-3.2c0.4-1.5,0.9-3.1,1.3-4.6c0.3-1.2,0.2-1.8-1.3-1.5c-5,0.9-10.1,1.8-15.1,2.3
	c-3.2,0.4-3,2.7-2.8,4.5c0.4,3.9,1.1,7.9,1.9,11.8c1.2,5.7,1.2,11.6,1.9,17.4c0.1,0.8-0.2,1.5-1,1.6c-1.1,0.2-1.3-0.8-1.4-1.6
	c-0.7-4.9-1.5-9.8-1.8-14.7c-0.2-4-1.4-7.8-2.2-11.7c-1.7-8.5-1.7-17-2.5-25.6c-0.1-0.7,0.3-1.5-0.4-2c-0.3,0.5-0.7,1-1,1.6
	c-2.4,5.5-5.2,10.8-6.9,16.5c-1,3.3-3.1,6.1-3.7,9.5c-0.1,0.6,0.2,1.4-0.8,1.3c-0.1,0-0.4-1.2-0.2-1.7c1-3.1,2-6.2,3.2-9.2
	c3-7.6,6.1-15.2,9.3-22.7c0.6-1.5,0.4-3,0.1-4.5c-0.5-2.5-2.5-0.6-3.6-1.1c-4.3-1.7-8.8-0.5-13.2-1c-2.6-0.3-4,0.5-3.8,4
	c0.4,10.2,0.1,20.4,0.1,30.6c0,1.3,0.2,2.7,0.5,4c0.7,4.1,1.7,8.2,1.2,12.5c-0.4,3.3,0.8,6.6-0.2,9.9c-0.2,0.7,0.1,1.8-1.1,1.8
	c-0.9,0-1.3-0.9-1.3-1.7c0.1-2.1-0.6-4.2-0.1-6.4c1.1-5.4,0.4-10.8-0.7-16.1c-0.5-2.4-0.3-4.9-0.3-7.4c-0.2-10,0.6-20-1.2-30
	c-0.3-1.5,0.3-2,1.5-2.4C132.6,137.3,135.8,137.2,139,137.3z"/>
<path d="M297.2,162.9c-0.3-6.5-0.2-13.8-1.7-20.9c-0.5-2.4-0.1-5-1.1-7.3c-0.2-0.5,0.1-1.3-0.6-1.4c-0.3,0-0.8,0.7-0.9,1.2
	c-1.5,4.9-3,9.8-4.4,14.7c-1.9,7.1-3.6,14.2-5.5,21.3c-0.3,1.2,1.6,2.2,0.1,3.4c-0.4,0.3-0.6,0.6-0.9,1c-0.1-0.5-0.3-0.9-0.2-1.4
	c1.1-6,2-12.1,3.4-18.1c1.8-7.4,4-14.6,6-21.9c0.3-0.9,0.1-1.5-1-1.8c-5-1-9.8-0.8-14.3,1.9c-1.8,1.1-1,3.1-0.7,4.3
	c0.5,1.7-0.1,3.3-0.1,4.9c0.2,8.6,1.1,17,2,25.5c0.6,6.2,1.2,12.5,1.2,18.8c0,1.9-1.2,3.9-1,6c0.1,0.6-0.7,0.9-1,0.5
	c-0.6-0.6-2.1-0.8-1.5-2c1.1-2.5,0.6-4.7-0.8-7c-1.2-1.8,0.5-3.9-0.3-5.9c-0.4-1,0.3-2.3-1.2-2.9c-0.1-0.1-0.3-0.4-0.2-0.5
	c3-4.1,1.2-8.6,1.1-12.9c-0.1-7.2,0.2-14.5-1.8-21.6c-0.2-0.7,0-1.6-0.9-1.7c-0.9-0.1-1.1,0.8-1.3,1.5c-2.9,9.6-5.5,19.2-6.1,29.2
	c-0.2,3.1-0.9,6.1-1.4,9.2c0,0.3-0.4,0.7-0.5,0.7c-0.6-0.1-0.4-0.7-0.5-1.2c-0.5-7.1,0.8-14,2-20.9c1.8-10.1,4.8-19.8,8.6-29.3
	c3.3-8.3,7.2-16.4,11.2-24.4c0.4-0.9,1-2.3,2.2-1.6c1.2,0.6,0.1,1.7-0.3,2.5c-2.2,4.5-4.5,9-6.6,13.6c-1.3,2.8-2.4,5.8-3.5,8.7
	c-0.6,1.7,0.5,2.7,2,2.9c1.1,0.2,2.4,0.1,3.5-0.2c3.3-1,6.6-1.1,9.9-0.1c1.7,0.5,2.5-0.2,3-1.8c4.5-14.2,10.6-27.7,17.9-40.7
	c0.8-1.4,1.9-2.7,3-4c0.1-0.2,0.5-0.4,0.6-0.3c0.6,0.4,0.1,0.9-0.1,1.2c-1.9,3.8-3.9,7.5-5.9,11.2c-5.6,10.7-10,21.9-14,33.2
	c-0.2,0.5-0.3,1.4,0,1.6c4.8,3.6,3.2,9.2,4,13.8c1.5,8.9,1.1,18,1.6,27c0,0.6-0.2,1.5,0.5,1.7c1,0.2,0.9-1,1.1-1.6
	c2.1-11.2,5.3-22,8.9-32.8c2.8-8.5,5.6-17,9.2-25.2c2.4-5.5,5.2-10.9,9.5-15.4c0.5-0.5,0.9-1.7,1.8-1c0.6,0.5-0.3,1.3-0.7,1.8
	c-6.2,8.6-10.5,18.2-14.1,28.1c-5.7,15.8-10.6,31.8-15.1,48c-0.6,2.1-0.2,4.3,0.1,6.4c0.2,1.5,0.6,3,0.6,4.5c0,1.1,0.3,2.9-1.1,3
	c-1.6,0.2-1.2-1.6-1.4-2.5C298.7,178.7,296.9,171.3,297.2,162.9z"/>
<path d="M230.1,124.9c-1.4-2-3.9-2.9-5.1-5.1c-0.6-1.2-1.7-0.3-2.1,0.7c-4.3,9.4-9.3,18.6-10.9,28.8c-1,6.1-2,12.2-2.3,18.4
	c-0.5,7.5,1.1,14.5,2.7,21.6c0.6,2.6,2.3,4.6,3.4,6.9c0.3,0.7,1,1.3,0.4,2.1c-0.6,0.7-1.5,0.7-2.2,0.3c-1.9-1-3.5-2.5-4-4.5
	c-1.9-7.1-3.6-14.4-3.4-21.7c0.5-15.5,3-30.6,10.3-44.6c1.7-3.3,3.1-6.8,4.7-10.2c1.1-2.4,2.8-2.1,4.7-0.9c2.6,1.6,4.6,3.8,6.4,6.1
	c3.3,4.3,7.5,8.1,9.5,13.5c0.3,0.8,1.5,1.2,2,2c0.7,1.1,0.8,0.9,1-0.2c1.5-6.2,2.8-12.5,4.5-18.6c2.7-9.6,5.3-19.2,8.7-28.5
	c0.9-2.6,1.7-5.3,2.5-8c0.4-1.1,1-2.4,2.3-1.8c1.6,0.8-0.3,1.4-0.5,2.2c-1.9,6.2-4,12.3-5.8,18.5c-2.5,8.6-4.9,17.2-7.2,25.8
	c-1.3,4.8-2.5,9.7-3.2,14.6c-0.6,4.2,1.1,8.3,2.6,12c1.6,4,1.3,8,1.9,11.9c0.6,4.1,0.9,8.3,1,12.4c0.2,5.4,0.5,11.3-2,16.5
	c-0.4,1-0.9,1.9-0.9,3c0,1.4-0.7,2.7-2,2.4c-1.4-0.3-0.9-2-0.5-2.9c1.2-3.5,2-7.1,2-10.8c0-8.8,0-17.7-1.5-26.4
	c-0.4-2.2-1-4.4-1.6-6.6c-0.1-0.4-0.4-1.1-0.7-1.1c-0.8-0.1-0.6,0.7-0.7,1.2c-2.2,9.6-3.4,19.4-5,29.1c-0.2,1-0.1,2.1-1,2.8
	c0-0.9-0.1-1.9,0.1-2.8c1.2-7.9,1.5-15.8,3-23.7c0.4-2,1.6-4.1,1.1-6.1c-0.5-1.7,0.2-2.7,0.7-4.1c1.2-3.3-0.6-8-3.6-9.9
	c-0.3-0.2-0.8-0.1-0.5-0.8c0.9-2.7-1.1-4.7-2.5-6C233.6,130.3,232.4,127.2,230.1,124.9L230.1,124.9z"/>
<path d="M109.8,197.4c2.1-8.9,0.1-17.9,0.1-27c0-0.7,0.3-1.6-0.5-1.9c-0.2-0.1-1,0.9-1.2,1.5c-1.4,3.6-2.8,7.1-4.2,10.7
	c-0.3,0.8-0.8,1.5-1.2,2.3c-0.5-0.9,0.1-1.7,0.3-2.4c1.2-3.7,2.4-7.5,3.9-11.1c2.5-5.7,2.1-11.7,1.5-17.6
	c-0.8-8.7-0.3-17.4-0.3-26.1c0-0.6,0.2-1.4-0.6-1.6c-0.8-0.2-1,0.7-1.2,1.3c-1.4,3-2.6,6.2-4.2,9.2c-2.5,4.6-3.7,9.7-6.1,14.4
	c-1,1.9-1.9,3.9-3.1,5.7c-2.6,4-3.4,8.8-5.8,13c-0.8,1.4-2.2,0.5-2.7,1.7c-2.3,6-6,11.3-9.2,16.7c-1.9,3.2-1.6,7.1-3.7,10.1
	c-0.7,0.9-1.2,2.1-2.6,1.3c-1.5-0.8-0.1-1.6,0.1-2.4c2.6-8.2,6.8-15.5,11.3-22.8c7.8-12.8,13.5-26.4,17.8-40.7
	c3.6-11.9,7-23.9,12.3-35.2c0.4-0.8,0.5-1.7,0.8-2.5c0.2-0.7-0.3-2,1-1.7c0.9,0.2,0.4,1.4,0.2,2.1c-1.5,5.8-4.4,11-6.2,16.6
	c-1.1,3.4-2.5,6.7-3,10.3c-0.1,0.6-0.5,1.4,0.4,1.6c0.9,0.2,1.2-0.4,1.6-1.1c0.9-1.2,0.5-4,2.9-3.4c2,0.5,1.4,2.9,1.9,4.5
	c1,3.5,0.6,7.2,0.2,10.7c-0.8,6.9,0.3,13.7,0.6,20.6c0,0.6,0.1,1.3,0.8,1.3c1.1,0.1,1.2-1,1.4-1.6c3.8-9.3,7.6-18.6,12-27.7
	c6.3-13.1,12.6-26.2,18.8-39.3c1.3-2.7,2.4-5.6,3.6-8.4c0.2-0.4,0.6-1,0-1.2c-0.2-0.1-0.9,0.3-1.1,0.6c-1.4,2.1-2.8,4.3-4.2,6.4
	c-0.3,0.4-0.5,1-1,0.6c-0.1-0.1-0.1-0.7,0.1-1.1c1.2-2.8,3-5.3,4.9-7.7c0.7-0.9,1.5-2,2.8-1.1c1.1,0.7,0.9,2,0.5,3
	c-1.9,4.5-3.7,9-5.8,13.4c-3.8,8.2-7.9,16.2-11.8,24.4c-6.4,13.5-12.4,27.2-18.2,41c-2.3,5.6-1.6,10.7-1.3,16
	c0.5,8.1,0.6,16.1,0.3,24.2c0,1.1-0.2,2.7-1.7,2.7C109.6,199.8,110.2,198.4,109.8,197.4z"/>
<path d="M448.4,171.9c0.4-7.4-2-14.3-3.1-21.5c-0.9-5.9-0.2-12,0.3-17.9c0.4-5,0.5-10,0.8-15c0-0.6,0.1-1.4-0.7-1.6
	c-0.9-0.3-1,0.6-1.3,1.1c-1.2,2.2-2.5,4.4-3.8,6.6c-0.1,0.2-0.4,0.4-0.6,0.6c0.3-1.4-2-1.7-1.5-3.2c0.2-0.5,0.5-1.4,0.8-1.4
	c0.9,0.1,0.2,0.8,0.3,1.2c0.2,0.8,0.6,0.7,0.9,0.2c2.4-4.9,7.2-8.9,5.9-15.2c-0.2-1.1-0.4-1.8-1.7-1.8c-7.4,0.2-14.7,1-21.8,2.9
	c-2.6,0.7-0.4,3.3-0.7,5c-0.4,2.6,1.5,5.2-0.1,8c-0.3,0.6-0.4,2.2,0.8,2.5c1.3,0.4,2.7,0.2,3.6-1.2c0.4-0.6,0.7-1.9,1.6-1.3
	c1,0.7-0.2,1.5-0.6,2.1c-2.5,4.2-6.1,7.8-6.1,13.2c0,3.3,1.2,6.2,1.6,9.3c0.6,5.2-0.1,10.2-0.8,15.2c-0.2,1.1-0.9,2.4,0.9,3
	c0.1,0,0.3,0.3,0.3,0.4c-2.5,5.5-1.6,11.6-3,17.4c-0.2,0.8,0.3,2.1-0.9,2.1c-1.2,0-1.1-1.3-1-2.1c0.4-6.1,0.9-12.2,1.3-18.3
	c0.4-6.3,1.8-12.6,0.6-19c-0.1-0.8-0.2-1.6-0.5-2.3c-0.5-1,0.1-2.8-1-2.9c-1.3-0.2-1.5,1.6-2,2.6c-2.1,4.4-4.1,8.7-6,13.2
	c-1.6,3.9-2.8,7.9-4.2,11.8c-0.1,0.3-0.6,0.8-0.7,0.8c-0.7-0.2-0.3-0.7-0.2-1.2c1.1-4,2.6-7.9,3.9-11.8c1.4-4.2,3.6-7.9,5.3-11.8
	c1.5-3.5,4.7-6.5,4.4-10.8c-0.3-4.1,0.1-8.2-0.1-12.3c-0.1-2.3,0.3-5,0.4-7.5c0-1.2-0.2-2.2-0.7-3.4c-0.5-1.1,0.5-2.3,2-2.5
	c6.8-1,13.4-3.5,20.4-3c1.7,0.1,3.3-0.3,5-0.3c1.2,0,2.2,0.4,2.6,1.7c0.2,0.5,0,1.5,0.9,1.4c0.5-0.1,0.9-0.8,1.3-1.3
	c1.5-2,3-3.9,4.5-5.9c0.4-0.4,0.9-1.2,1.6-0.6c0.5,0.5-0.2,1-0.5,1.4c-1.6,2.1-3.3,4.1-4.8,6.3c-1.7,2.4-2.9,4.8-2.8,8
	c0.4,8.6-0.7,17.1-1.4,25.6c-0.8,8.6,1.1,17,2.8,25.3c1,4.9,0.1,9.9,0.3,14.8c0,0.7-0.2,1.6-1.1,1.6c-1,0-1.2-1-1.2-1.8
	C448.3,176.2,448.4,174,448.4,171.9z"/>
<path d="M479.6,136c3.4,0,6.8,0,10.3,0c2.4,0,3.9,1.5,3.9,3.7c0,9.2,0.3,18.3-0.8,27.5c-0.1,0.8-0.2,1.8-1.3,1.5
	c-1.2-0.3-1.2-1.3-1-2.3c1-8.2,0.6-16.4,0.9-24.6c0.1-2.9-1.1-4-4-3.9c-3.3,0.1-6.5-0.2-9.8-0.3c-4.9-0.2-6.6,0.9-8,5.6
	c-0.5,1.8-1,3.5-1.6,5.3c-0.2,0.5-0.5,0.9-0.8,1.3c0-0.5-0.2-1.1-0.1-1.6c0.6-2.2,1-4.4,1.9-6.4c1.1-2.5,1-3.8-2.2-3.3
	c-0.2,0-0.3,0-0.5,0c-6.5,0.2-7.2,1.5-6,8c0.7,3.8,0.2,7.8,0.1,11.6c0,4.8-0.1,9.6-0.3,14.4c0,0.9,0.6,2.5-1,2.5
	c-1.3,0.1-1.2-1.5-1.3-2.5c-0.5-2.6,0.3-5.3,0.3-7.9c-0.1-6.8-0.3-13.6-0.5-20.4c0-0.7,0.2-1.9-0.8-1.9c-0.8,0-0.8,1.1-0.9,1.8
	c-0.4,2.3-0.8,4.6-1.2,6.8c-0.1,0.3-0.3,0.5-0.5,0.8c-0.1-0.3-0.2-0.6-0.2-0.8c0.4-4,0-8.4,1.4-12.1c2.6-6.9,4.6-14.1,8.7-20.4
	c1.9-2.9,3.3-6.2,5.7-8.8c0.5-0.5,0.7-1.5,1.8-1.3c-0.3,0.6-0.5,1.3-0.9,1.8c-4.7,7.7-8.9,15.7-12.1,24.2c-0.9,2.3,0,2.9,2.1,2.6
	c0.3,0,0.6-0.2,0.9-0.1c12.1,2.1,12.7-8.8,17-15.2c3-4.4,5.7-9,9.2-13.1c0.3-0.4,0.6-1,1.3-0.7c-0.2,0.4-0.3,0.9-0.6,1.2
	c-5,7.3-9.8,14.8-14,22.6c-2.3,4.3-2.3,4.3,2.5,4.3c0.7,0,1.4,0,2.2,0C479.6,135.9,479.6,136,479.6,136z"/>
<path d="M88,81.7c-1.6,0.2-2.2-0.2-1.3-1.8c0.8-1.5,1.5-3.2,2.4-4.7c0.4-0.7,0.6-2.2,1.9-1.6c1,0.5,1.1,1.7,0.8,2.8
	c-1.2,3.6-2.3,7.3-3.8,10.8c-5.3,11.9-10.8,23.7-16.2,35.6c-0.4,0.9-1,1.9-0.2,2.9c0.2,0.2,0.3,0.8,0.2,0.8
	c-4.1,1.8-3.4,6.1-4.9,9.2c-2.4,4.7-3.6,9.7-5.3,14.5c-1.9,5.5-3.3,11.2-4.8,16.8c-0.2,0.6-0.4,1.1-0.7,1.7c-0.5-0.6-0.1-1.2,0-1.8
	c1.5-9.4,4.4-18.4,7.4-27.4c3.3-9.8,7.9-19.2,11.8-28.8c3.2-7.8,7.6-15,10.3-23.1C86.2,85.8,87.8,84,88,81.7
	c0.2-0.2,0.3-0.4,0.4-0.6C88.3,81.4,88.2,81.5,88,81.7z"/>
<path d="M227.6,95.6c-0.5,1.2-1,2.4-1.6,3.5c-8,13.8-15.5,27.9-22.7,42.1c-3,5.8-5.6,11.8-8.3,17.7c-0.2,0.5-0.7,1-1.1,1.4
	c0.1-0.6,0.2-1.2,0.4-1.8c3.6-9.3,7.8-18.3,12.5-27.1c6.3-11.7,12.8-23.3,19.3-35c0.3-0.5,0.8-0.9,1.2-1.4
	C227.3,95.2,227.4,95.4,227.6,95.6z"/>
<path d="M47.4,125.8c1.6-6.1,3.7-11.8,6.5-17.4c5.7-11.6,11.6-23.1,17.4-34.6c0.8-1.5,1.1-3.2,1.7-4.8c0.2-0.5,0.6-1.1,1.3-0.8
	c0.8,0.3,0.8,1,0.5,1.6c-1,2.2-2,4.3-3,6.5c-5.9,11.7-12,23.4-17.8,35.3c-2.2,4.6-4.5,9.2-5.8,14.2c-0.1,0.3-0.4,0.6-0.6,1
	C47.5,126.4,47.4,126.1,47.4,125.8z"/>
<path d="M138.9,182.8c-0.5,0.8-0.9,1.8-1.5,2.5c-0.2,0.2-0.3-0.4-0.2-0.6c0.6-1.1,0.3-2.5,1.4-3.4
	C138.7,181.7,138.8,182.2,138.9,182.8z"/>
<path d="M282,182.2c-0.2,0.1-0.6,0.4-0.8,0.4c-0.5-0.1-1.1-0.3-1-1c0-0.2,0.6-0.4,0.9-0.4C281.5,181.2,281.9,181.5,282,182.2z"/>
<path d="M514.2,12.6c0.1,1-0.1,1.6-0.8,1.7c-0.5,0.1-0.4-0.3-0.3-0.6c0.2-0.8,0.3-1.6,0.4-2.4C513.8,11.8,514.1,12.3,514.2,12.6z"/>
<path d="M32.3,43.4c-0.2,0.6-0.7,0.6-1.2,0.5c-0.4-0.1-1.1-0.1-0.9-0.7c0.1-0.2,0.8-0.3,1.3-0.4C31.9,42.7,32.4,42.8,32.3,43.4z"/>
<path d="M429.9,117.3c-0.7,0-0.7-0.3-0.6-0.6c0.3-0.6,0.5-1.2,0.9-1.6c0.3-0.3,0.6,0.1,0.5,0.4C430.6,116.2,430.2,116.8,429.9,117.3
	z"/>
<path d="M439.6,158.6c-0.8,0.1-1.4,0.2-1.5-0.4c-0.1-0.6,0.5-0.4,0.9-0.3c0.5,0.1,1.1,0.2,1.6,0.4
	C440.2,158.4,439.8,158.6,439.6,158.6z"/>
<path d="M379.2,192.5c0.4,0.2,1.2,0.3,1.4,0.6c0.2,0.6-0.5,0.5-0.8,0.4c-0.6-0.1-1.1-0.4-1.7-0.6
	C378.4,192.8,378.7,192.6,379.2,192.5z"/>
<path d="M384.3,206.3c-0.4-0.6-0.8-0.9-1-1.3c-0.1-0.2,0.1-0.7,0.2-0.7c0.6,0,1.1,0.3,1.2,0.9C384.7,205.5,384.5,205.8,384.3,206.3z
	"/>
<path d="M433.1,112.8c-0.2-0.4-0.5-0.6-0.4-0.7c0.3-0.5,0.6-1,0.9-1.6c0.1,0.1,0.4,0.3,0.4,0.4C433.7,111.5,433.4,112,433.1,112.8z"
	/>
<path d="M539.5,14.9c-0.6,0.2-0.9,0.4-1.2,0.3c-0.2,0-0.3-0.4-0.5-0.7c0.3-0.2,0.6-0.4,0.9-0.4C538.9,14.1,539.1,14.5,539.5,14.9z"
	/>
<path d="M287.7,11.8c0.3,0.8,0.5,1.2,0.5,1.6c0.1,0.3-0.1,0.7-0.5,0.4c-0.3-0.2-0.5-0.6-0.5-1C287.1,12.7,287.4,12.4,287.7,11.8z"/>
<path d="M529.5,195.4c-0.5,0.4-0.8,0.7-1.1,0.9c-0.4,0.1-0.6-0.2-0.5-0.5c0.1-0.3,0.3-0.6,0.6-0.7C528.7,195,529,195.2,529.5,195.4z
	"/>
<path d="M90.7,147.4c0.2,0.3,0.4,0.5,0.4,0.6c-0.1,0.3-0.3,0.6-0.6,0.7c-0.5,0.2-0.5-0.2-0.4-0.5C90.2,148,90.4,147.8,90.7,147.4z"
	/>
<path d="M0.5,66.8c0.2,0.3,0.4,0.5,0.4,0.6c-0.2,0.2-0.4,0.3-0.6,0.5C0.2,67.7,0,67.5,0,67.3C0,67.1,0.3,67,0.5,66.8z"/>
<path d="M386.1,230.7c-0.4,0.2-0.6,0.4-0.8,0.4c-0.1,0-0.3-0.3-0.4-0.4c0.2-0.2,0.4-0.4,0.6-0.5
	C385.6,230.2,385.8,230.4,386.1,230.7z"/>
<path d="M246.4,232.8c0.3,0.2,0.5,0.3,0.7,0.4c-0.2,0.2-0.3,0.4-0.6,0.5c-0.1,0-0.4-0.2-0.5-0.3C246.1,233.2,246.3,233,246.4,232.8z
	"/>
<path d="M257.4,65.9c0.1,0.3,0.2,0.7,0.4,1c-0.2,0-0.5,0-0.6-0.1C256.7,66.3,257,66.1,257.4,65.9L257.4,65.9z"/>
<path d="M13.7,117.9c-0.3,0.1-0.5,0.2-0.7,0.2c-0.1,0-0.2-0.2-0.3-0.3c0.1-0.1,0.3-0.4,0.4-0.4C13.2,117.5,13.4,117.7,13.7,117.9z"
	/>
<path d="M112.4,122c-0.2-0.1-0.5-0.2-0.8-0.2c0.3-0.1,0.6-0.2,0.8-0.2c0.2,0,0.5,0.2,0.7,0.3C112.9,121.9,112.7,122,112.4,122z"/>
<path d="M151.6,9c-0.4,0.1-0.6,0.2-0.8,0.1c-0.2-0.1-0.3-0.4-0.4-0.6c0.2,0,0.5-0.1,0.7,0C151.2,8.5,151.3,8.7,151.6,9z"/>
<path d="M518.8,1c-0.2-0.2-0.4-0.4-0.4-0.5c0-0.2,0.3-0.4,0.4-0.4c0.1,0,0.4,0.3,0.4,0.4C519.2,0.6,519,0.7,518.8,1z"/>
<path d="M425.4,163.8c0.5-0.5,1-0.9,1.5-1.4c0.1,0.1,0.2,0.3,0.1,0.4C426.8,163.5,426.1,163.7,425.4,163.8L425.4,163.8z"/>
<path d="M98.1,169.9c-0.2-0.1-0.5-0.3-0.7-0.4c0.2-0.1,0.4-0.3,0.6-0.3c0.3,0.1,0.5,0.3,0.8,0.4C98.5,169.7,98.3,169.8,98.1,169.9z"
	/>
<path d="M45,214.8c-0.2,0.2-0.4,0.4-0.6,0.4c-0.2,0-0.3-0.3-0.4-0.4c0.1-0.1,0.3-0.4,0.4-0.4C44.6,214.4,44.8,214.6,45,214.8z"/>
<path d="M431.6,99.4c-0.2,0.1-0.3,0.2-0.4,0.2c-0.2-0.1-0.4-0.2-0.5-0.3c0.1-0.1,0.2-0.2,0.3-0.2C431.2,99.1,431.4,99.3,431.6,99.4z
	"/>
<path d="M230.1,124.9c-0.4,0.7-1,0.5-1.6,0.4c0,0-0.1-0.1-0.1-0.2C228.9,125.1,229.5,125,230.1,124.9
	C230.1,124.9,230.1,124.9,230.1,124.9z"/>
<path d="M112.1,42.3c-0.1-0.2-0.3-0.3-0.4-0.5c0.2-0.1,0.4-0.3,0.5-0.2c0.2,0.1,0.2,0.3,0.4,0.5C112.4,42.2,112.3,42.3,112.1,42.3z"
	/>
<path d="M67,31.3c0.1,0.2,0.3,0.4,0.3,0.5c-0.1,0.2-0.3,0.4-0.5,0.4c-0.1,0-0.3-0.2-0.4-0.3C66.6,31.7,66.7,31.6,67,31.3z"/>
<path d="M229.2,63.5c-0.1,0.1-0.1,0.3-0.2,0.3c-0.1,0-0.3,0-0.4-0.1c-0.1-0.1,0-0.2,0-0.4C228.8,63.3,229,63.4,229.2,63.5z"/>
<path d="M236.8,136.1c-0.2,0.1-0.3,0.3-0.4,0.3c-0.2,0-0.4-0.1-0.6-0.1c0.1-0.1,0.2-0.2,0.3-0.2C236.3,136,236.6,136.1,236.8,136.1z
	"/>
<path d="M9,24.4c-0.1,0-0.2,0.1-0.4,0.1c0-0.1,0-0.2,0-0.4c0,0,0.2-0.1,0.2-0.1C8.9,24.2,8.9,24.3,9,24.4z"/>
<path d="M262.6,66.9c-0.1,0-0.1,0.1-0.2,0.1c0-0.1-0.1-0.2-0.1-0.3c0.1,0,0.2,0,0.2,0C262.6,66.7,262.6,66.8,262.6,66.9z"/>
<path d="M87,20.9c-0.1,0.1-0.2,0.2-0.4,0.2c-0.1,0-0.3,0-0.5-0.1c0.1-0.1,0.2-0.3,0.4-0.3C86.7,20.8,86.8,20.9,87,20.9z"/>
<path d="M70.9,20.9c0.1,0.2,0.1,0.4,0.2,0.5c-0.1,0-0.3,0.1-0.4,0.1c-0.1-0.1-0.2-0.3-0.3-0.5C70.6,21,70.7,20.9,70.9,20.9z"/>
<path d="M76,19.8c-0.1-0.1-0.2-0.1-0.4-0.2c0.1-0.1,0.3-0.2,0.4-0.2c0.2,0,0.3,0.2,0.4,0.3C76.3,19.7,76.1,19.8,76,19.8z"/>
<path d="M12.9,93.8c-0.1-0.1-0.2-0.2-0.2-0.3c0.1-0.1,0.2-0.2,0.3-0.2c0.1,0,0.2,0.2,0.2,0.2C13.1,93.6,13,93.7,12.9,93.8z"/>
<path d="M441,159.8c0,0.1,0.1,0.2,0.1,0.4c0,0-0.1,0.1-0.2,0.1c-0.1-0.1-0.2-0.1-0.3-0.2C440.8,159.9,440.9,159.9,441,159.8z"/>
<path d="M406.2,168.4c-0.1,0.1-0.3,0.2-0.4,0.2c-0.1-0.1-0.1-0.2-0.2-0.4c0.1-0.1,0.3-0.2,0.3-0.2
	C406.1,168.1,406.1,168.2,406.2,168.4z"/>
<path d="M359.1,96.8c-0.1,0.1-0.3,0.2-0.4,0.2c-0.1-0.1-0.2-0.3-0.3-0.4c0.1,0,0.3-0.1,0.4-0.1C358.9,96.5,359,96.7,359.1,96.8z"/>
<path d="M423.7,78.7c0.1,0,0.3-0.1,0.4-0.1c0.1,0,0.2,0.2,0.3,0.3c-0.2,0.1-0.3,0.2-0.5,0.2C423.9,79.1,423.8,78.8,423.7,78.7z"/>
<path d="M53.7,172.4c-0.1,0.1-0.2,0.3-0.3,0.3c-0.2-0.1-0.3-0.2-0.4-0.3c0.1-0.1,0.2-0.2,0.4-0.2C53.5,172.1,53.6,172.3,53.7,172.4z
	"/>
<path d="M408.8,176.7c-0.1,0.1-0.3,0.2-0.4,0.2c-0.1,0-0.1-0.2-0.2-0.3c0.1-0.1,0.2-0.2,0.4-0.2
	C408.6,176.4,408.7,176.6,408.8,176.7z"/>
<path d="M144.2,190.2c-0.1,0-0.3-0.1-0.4-0.1c0.2-0.1,0.3-0.2,0.5-0.3c0.1,0,0.2,0.1,0.4,0.2C144.4,190,144.3,190.1,144.2,190.2z"/>
<path d="M72.3,202.4c0.1,0.2,0.2,0.4,0.3,0.6c-0.1,0-0.3,0.1-0.4,0c-0.1-0.1-0.2-0.2-0.3-0.4C71.9,202.6,72.1,202.5,72.3,202.4z"/>
<path d="M87.6,204.4c-0.2,0-0.3,0.1-0.4,0.1c-0.1-0.1-0.2-0.3-0.3-0.4c0.1,0,0.3,0,0.4,0C87.4,204.1,87.5,204.2,87.6,204.4z"/>
<path d="M425.4,163.8c0.1,0.3,0.2,0.7,0.3,1c-0.1,0-0.2,0-0.2,0C425,164.5,425.3,164.1,425.4,163.8
	C425.4,163.8,425.4,163.8,425.4,163.8z"/>
<path class="st0" d="M443,23.1c1.7,0,3.1-0.1,3.7,0.8c3.6,5.1,8.2,3.5,12.4,1.6c6.9-3,13-2.2,18.9,2.1c1.1,0.8,2.4,1,3.7,0.7
	c4.1-0.9,7.5,0.2,10.6,3c1.2,1.1,2.6,2.1,4,3c2.6,1.8,2.6,2.9-0.2,4.2c-1.3,0.6-2.7,0.8-4.1,1.2c-0.8,0.2-1.9,0.2-2.1,1.3
	c-0.1,1.3,0.9,1.8,1.9,2.2c2.2,0.7,4.3,1.7,6.3,3c5.6,3.5,6,8.5,0.9,12.5c-2.6,2.1-5.7,3.6-5.8,7.7c0,0.9-1.3,1-2.1,1.4
	c-3,1.4-5.4,3.4-6.8,6.4c-1.6,3.4-7.6,4.2-10.9,1.2c-2.1-1.9-3.7-2-6.3-1.3c-6.4,1.7-12.9,2.4-19.5,1.5c-3.1-0.5-6-1.6-7.8-4.5
	c-1-1.6-2.5-2-4.4-1.2c-5.6,2.4-11.2,4.7-16.8,7c-2,0.8-4.1,2-6.4,0.5c-0.8-0.6-1.5,0.3-2.1,0.7c-3.5,2.6-7.5,2.9-11.6,2.2
	c-1.9-0.3-3.5-1.2-4.1-3.2c-0.6-1.6-1.7-1.5-2.9-0.8c-4.5,2.6-9.5,3.5-14.6,4.2c-3,0.4-4.9-0.9-5.6-3.6c-0.5-1.9-1.3-2.1-3.1-1.8
	c-6.8,1.4-13.9,2.5-20.6,0.8c-3.8-0.9-7.4-1.3-11.1-1.4c-2.1,0-4.2,1.3-6.4,0.6c-0.6-0.2-1.5,0-1.5-0.8c0-0.9,0.9-1,1.6-1.1
	c1.1-0.1,2.2-0.3,3.2-1c0.5-0.4,1.1-1,0.6-1.6c-1.8-2,0.2-2.7,1.3-3c3-0.9,3.2-4.8,6.4-5.4c0.2,0,0.5-0.9,0.4-1.2
	c-0.2-0.7-0.8-0.4-1.2-0.2c-1.8,0.7-1.3-0.5-1-1.3c3.5-6.9,3.2-13.9,0.3-20.9c-0.6-1.5-0.9-3.2-1.3-4.9c-0.6-2.3-1.8-3.9-4.4-3.9
	c-2.2,0-3.4-1.4-4.1-3.5c-0.6-1.9-0.1-3.3,1.5-4.6c1.6-1.3,3.4-2.4,5.3-3.3c1.3-0.6,2.8-0.6,3.5,0.5c3.4,5.2,7.7,3,12,1.7
	c2.4-0.7,4.6-1.8,7-2.4c2.1-0.6,4.2-0.1,5.8,1.4c4.3,3.8,9,3.3,13.7,1.1c5.4-2.5,11.1-3.9,17-4.3c2.1-0.1,3.2,1.4,4,2.9
	c2.4,4.7,6,7.7,11.4,8.1c2.3,0.2,4.8,0.3,6.9-0.5c2-0.8,4.5,3.7,5.8-0.7C430.6,25.1,437.1,24.1,443,23.1z"/>
<path class="st0" d="M331,59.8c-2.6-0.1-5.2-0.4-7.7,0.9c-1.4,0.7-2.5,0.1-3.3-1.4c-2.7-5.3-4-5.8-10-5.2c-1,0.1-2.5,1.3-3.2-0.1
	c-1-2.2-3.5-4-2.6-6.7c1.9-5.7,5.4-10.4,10.6-13.4c4.1-2.4,8.4-4.2,11.9-7.5c1.1-1,1.8-0.9,2.2,0.6c0.6,2.8,2.4,4.3,5.3,4.3
	c2.1,0,3,1.3,3.3,3.1c0.5,3.1,1.6,6,2.6,8.9c1.9,5.3-0.1,10.4-1.7,15.4c-0.4,1.2-1.7,1.1-2.7,1.1C334,59.9,332.5,59.8,331,59.8z"/>
<path class="st0" d="M316.4,73.2c-1.8-0.2-3.1-0.4-4.5-0.4c-4.6,0-8.6-0.8-9-6.6c-0.1-1.4-1.2-2.5-2.6-3.1c-0.6-0.2-1.2-0.7-1.1-1.4
	c0.1-0.8,0.9-0.8,1.5-1c2.4-0.8,5.3-0.7,7.1-2.5c1.1-1.1,1.7-2.4,3.7-2.5c3-0.2,5.2,0.7,6.4,3.4c1.4,3.1,3.2,4.8,7,3.1
	c3.3-1.6,7.1-0.1,10.6-0.5c1-0.1,1.1,0.5,0.6,1.4c-1.4,3-3.7,4.7-6.8,5.5c-0.5,0.1-1.3,0.4-1.4,0.7c-0.1,0.7,0.7,0.3,1,0.6
	c1.1,0.8-0.1,0.8-0.4,1C324.9,73.7,320.2,72.2,316.4,73.2z"/>
<path class="st0" d="M301.7,54.2c2.9-1.4,2.6,1.8,3.1,3.1c0.3,0.9-1.7,1.2-2.8,1.4c-4.2,0.6-8.4,1.2-12.5,1.7
	c-0.5,0.1-1.3,0-1.5-0.2c-0.4-0.7,0.3-1.2,0.8-1.5C292.7,56.4,296.7,54.2,301.7,54.2z"/>
<path class="st0" d="M380.7,105.9c-1.3,5.1-3.7,9.4-5.5,14c-2.2,5.6-4.4,11.1-6.6,16.7c-0.3,0.7-0.4,2.4-1.3,1.8
	c-1.5-1-4,0.7-4.7-2.1c-1-3.7-2.4-7.2-3.5-10.9c-1.2-3.9-3.5-7.1-5.3-10.7c-1.7-3.3-2.8-6.9-4.2-10.4c-0.4-1.2,0.4-1.6,1.3-1.8
	c5.8-1.3,11.5-2.2,17.5-1.2c0.2,0,0.3,0.1,0.5,0.1c6.6,1.6,6.6,1.6,4.2,8c-0.2,0.4-0.6,0.9,0,1.2c0.1,0.1,0.6-0.4,0.8-0.7
	c1-1.7,1.9-3.3,2.8-5c0.7-1.2,1.7-1,2.7-0.6C380.1,104.7,381.2,104.9,380.7,105.9z"/>
<path class="st0" d="M371.8,142.4c-1.1-0.8-2.4-1.5-1.5-3.1c3.9-7,7.8-14,11.7-21c1.2-2.2,2.6-4.4,3.8-6.6c2.2-3.9,3.3-4.1,6.6-1.2
	c2.6,2.4,5,4.9,7.5,7.4c1.7,1.6,2.7,3.2,1.6,5.8c-1.3,3.1-2.3,6-5.9,7.6c-7.7,3.4-15.9,5.9-22.9,10.8
	C372.6,142.2,372.2,142.2,371.8,142.4z"/>
<path class="st0" d="M359.5,154.8c-1.9,4.1-0.5,9.3-3.1,13.6c-0.8,1.2,0.3,2.3,0.1,3.5c-0.9,4.9-1.8,9.7-2.8,14.6
	c-0.2,1-0.8,1.2-1.7,1c-1.3-0.3-2.7-0.5-4-0.8c-0.8-0.2-2.2-0.4-2.2-0.6c0-1,1.2-0.4,1.7-1c0.3-0.3,1-0.4,0.7-1.1
	c-0.3-0.5-0.7-1.5-1-1.5c-4,0.5-4.7-3.4-6.2-5.4c-2.7-3.4-4.9-7.4-6.6-11.6c-0.7-1.7-0.4-2.6,1.5-3.1c7-1.9,13.1-5.6,19.1-9.5
	c1-0.6,2-1.5,3.3-0.9C359.3,152.4,359.6,153.3,359.5,154.8z"/>
<path class="st0" d="M360.2,188.8c-4.6,0.1-5.2-0.4-4.4-4.8c1-5.2,2-10.3,3.5-15.4c1.1-3.8,1.3-8,1.9-12c0.1-0.9-0.1-2.6,1.4-2.2
	c1.2,0.3,0.8,1.8,0.5,2.7c-2.2,6.5-2.1,13.3-2.3,20.1c0,0.5-0.3,1.3,0.5,1.6c0.1-0.5,0.4-1,0.4-1.5c0.5-6.2,1.1-12.4,2.9-18.4
	c0.2-0.7,0.2-1.6,1-1.8c0.9-0.2,1.3,0.8,1.3,1.4c0.1,1,1,0.9,1.4,1.4c0.4,0.4,1.1,1,1,1.5c0,0.7-0.9,0.4-1.4,0.5
	c-0.5,0.1-1,0.1-1,0.7c0,0.1,0.5,0.5,0.7,0.4c3-1.5,3.7,1.5,5.2,2.8c4.3,3.5,6.3,8.6,9.4,12.8c0.8,1.1,0.7,2-0.4,2.6
	C375.1,185,368.2,188.5,360.2,188.8z"/>
<path class="st0" d="M361.6,140.3c-0.6,1.2-1.1,2.9-3.2,2.1c-3.2-1.1-6.4-2.6-9.7-3.3c-4.4-0.9-7.1-4-10.5-6.4
	c-1.1-0.8-0.7-1.8-0.4-2.8c2.7-7.3,5.4-14.5,8.8-21.5c0.2-0.5,0.6-0.9,1-1.3c0.3,0.3,0.8,0.5,1,0.9c4.3,10.4,10.1,20.2,12.9,31.2
	C361.5,139.6,361.5,139.8,361.6,140.3z"/>
<path class="st0" d="M357.5,146.9c0.2,2-1.2,2.7-2.3,3.4c-5.6,3.6-11.3,7.2-17.6,9.4c-4.9,1.7-7.5-0.3-6.5-5.6
	c1.2-6.2,3.2-12.2,4.8-18.2c0.3-1.1,1.1-1.2,1.8-0.4c3.6,4,8.8,4.9,13.4,7C353.5,143.3,357.6,142.9,357.5,146.9z"/>
<path class="st0" d="M407.6,138.4c-1.3,4.9-1.5,10-4.4,14.6c-1,1.6-1.1,4.2-1.9,6.3c-0.7,1.9-1.8,1.4-2.6,0.4
	c-1.8-2.1-3.8-3.7-6.2-5.2c-1.7-1.1,0-3.1,0.4-4.3c1.7-5.9,3.8-11.6,6.7-17.1c1.3-2.5,3-2.8,4.9-3.5c0.7-0.3,1.8-0.2,1.7,0.6
	C405.8,133.1,408.1,135.5,407.6,138.4z"/>
<path class="st0" d="M387.7,153.1c-1.1-1-3.4-0.4-4.6-2.2c-0.2-0.3-0.7-0.5-1-0.4c-3.8,1-6-2.4-9.2-3.2c-1.7-0.4-1.5-2.1,0-3.3
	c4.9-3.7,10.6-5.8,16.2-8.1c2.2-0.9,4.4-1.9,6.6-2.7c0.7-0.3,1.8-0.5,1.3,1c-2.2,5.8-4.5,11.6-6.7,17.4
	C390,152.6,389.3,153.2,387.7,153.1z"/>
<path class="st0" d="M384.1,174.8c-1.8-0.5-2.8-2-3.2-3.4c-1.2-4-4.4-6.4-6.9-9.3c-2.2-2.6-4.1-5.3-6.2-8.1c-0.2-0.3-0.3-1-0.2-1.1
	c1.8-0.9,3-3.6,5.3-2.5c4.5,2.2,9.4,3.3,14,5.1c1.1,0.4,1.4,0.7,1,2.1c-1.1,4.3-1.9,8.6-2.5,12.9
	C385.4,172.3,385.2,173.7,384.1,174.8L384.1,174.8z"/>
<path class="st0" d="M384.1,174.8c1.2,1.4,1.6,0.7,1.9-0.6c1.1-4.7,2.2-9.3,3.4-14c1-3.7,1.4-3.9,4.4-1.5c0.6,0.5,1.3,0.9,1.8,1.5
	c1.8,2,3.3,3.2,0.9,6.7c-2.3,3.4-4.9,6.4-7.6,9.5c-0.9,1.1-2.1,2-3.5,1.5C384.1,177.5,384.3,176,384.1,174.8
	C384.1,174.8,384.1,174.8,384.1,174.8z"/>
<path class="st0" d="M332,127.4c1-8.1,4.3-15.1,10.7-20.6c0.6-0.5,1.3-1.3,2.1-0.6c0.8,0.7,0.1,1.5-0.2,2.2
	c-3.1,6.4-5.4,13.1-7.9,19.7c-0.5,1.3-0.8,2.8-2.6,2.5C332.1,130.5,331.5,129.3,332,127.4z"/>
<path class="st0" d="M330.1,140.2c-0.2-2.4-0.2-4.4,0.5-6.4c0.4-1,0.8-1.7,2.1-1.3c1.2,0.4,2.2,1,1.8,2.4c-1.1,3.7-2.6,7.3-3.2,11.2
	c0,0.2-0.3,0.3-0.4,0.5c-0.2-0.2-0.4-0.5-0.4-0.7C330,143.9,329.9,141.9,330.1,140.2z"/>
<path class="st0" d="M381.7,102.9c-1.6-0.6-3-1.4-2-3.1c1.6-2.7,3.2-5.5,5.9-7.4c0.3-0.2,0.7-0.3,1-0.4c0.1,0.3,0.3,0.6,0.2,0.9
	c-1.3,3.2-2.2,6.7-4.2,9.6C382.4,102.7,382,102.8,381.7,102.9z"/>
<path class="st0" d="M365.1,143.3c0.9-0.3,1.2,0,1.2,0.6c-0.3,2.7-1.7,4.8-3.3,6.9c-0.3,0.4-1.3,0.2-1.4-0.3c-0.2-1.7-1.2-3.3-0.1-5
	C362.4,143.9,363.6,143.1,365.1,143.3z"/>
<path class="st0" d="M379.3,115.3c1.1-2.6,2.2-5.1,3.3-7.7c0.4-0.9,1-1.3,1.9-0.9c1.3,0.6,0.3,1.4-0.1,1.9c-1.7,2.4-2,5.7-4.6,7.6
	C378.8,116.4,379.4,115.7,379.3,115.3z"/>
<path class="st0" d="M379.3,115.3c0.2,0.3,0.3,0.6,0.5,1c-0.1,3.3-2.6,5.3-3.9,8.1c-0.1,0.1-0.2,0.2-0.3,0.3c0-0.2-0.1-0.4-0.1-0.6
	C376.8,121.1,378.1,118.2,379.3,115.3z"/>
<path class="st0" d="M404.9,126.6c-0.2,1.3-1.4,1.3-2.3,1.5c-0.5,0.1-0.9-0.1-0.6-0.6c0.5-0.9,0.5-2.3,2-2.4
	C404.7,125.2,404.8,125.9,404.9,126.6z"/>
<path class="st0" d="M271.9,134.8c0.1,0,0.2,0,0.2,0c0,0.1-0.1,0.2-0.1,0.3c-0.1,0-0.2-0.1-0.2-0.1
	C271.9,135,271.9,134.9,271.9,134.8z"/>
<path class="st0" d="M101.3,128.2c0.7-1.4,0.2-3.3,1.8-4.2c0.5-0.3,1,0.5,0.8,1.1c-0.7,1.5-1.4,2.9-2.2,4.4
	C101.5,129.1,101.4,128.7,101.3,128.2z"/>
<path class="st0" d="M423.2,123c0.7,0,1.4,0.1,1.2,1c-0.3,1.3-1,2.5-2.1,3.3c-0.4,0.3-0.8-0.8-0.5-1
	C422.8,125.4,420.6,123.2,423.2,123z"/>
<path class="st0" d="M88,81.7c0.1-0.8-0.2-1.7,0.8-2.2c0.1,0,0.3,0.1,0.4,0.2C89.2,80.6,88.8,81.3,88,81.7C88,81.7,88,81.7,88,81.7z
	"/>
<path d="M429.7,46.7c1,0,1.8-0.1,2.4,1.2c0.8,1.7,4.5,1.2,6.2,0c0.8-0.5,3.1-0.3,3.8,0.5c2.6,3,6.1,1.5,9.2,2.3
	c0.3,0.3,0.2,0.5,0,0.8c-1.7,3-5.4,2.4-6.8,1.6c-2.3-1.3-4.5-1.5-6.7-1.5c-2.1,0-4.1-0.9-6.3-0.3c-1.4,0.4-1.4-2.2-3-2.3
	c0.2-1.3,1.2-0.2,1.7-0.6C431.5,47.4,430,47.2,429.7,46.7L429.7,46.7z"/>
<path d="M429.8,46.7c-0.2,0-0.3,0-0.5,0c-0.8-0.1-1.7-0.3-2.5-0.5c0.1-0.1,0.2-0.4,0.3-0.4C428.1,45.7,429.1,45.6,429.8,46.7
	C429.7,46.7,429.8,46.7,429.8,46.7z"/>
<path d="M451.3,51.4c0-0.3,0-0.5,0-0.8c0.8-0.1,1.6,0.3,1.4,1.1C452.6,52.1,451.8,51.7,451.3,51.4z"/>
<path d="M424.8,49.1c-0.1,0.1-0.3,0.1-0.4,0.2c0-0.2,0-0.4,0-0.6c0,0,0.3,0,0.4-0.1C424.8,48.8,424.8,49,424.8,49.1z"/>
<path d="M454.2,53.9c0.1-0.4,0.2-0.8,0.3-1.2c0.1,0,0.2,0.1,0.4,0.1C454.6,53.1,454.4,53.5,454.2,53.9
	C454.2,53.9,454.2,53.9,454.2,53.9z"/>
<path d="M450.7,54.5c-0.1-0.1-0.1-0.2-0.2-0.3c0,0,0.1-0.1,0.2-0.1c0.1,0,0.2,0.1,0.4,0.2C450.9,54.3,450.8,54.4,450.7,54.5z"/>
<path d="M454.2,53.9c0.3,0.2,0.5,0.5,0.8,0.7c-0.2,0.1-0.3,0.1-0.5,0.2C454.4,54.5,454.3,54.2,454.2,53.9
	C454.2,53.9,454.2,53.9,454.2,53.9z"/>
<path d="M371.2,172.4c-0.2,0-0.3,0-0.5,0c-0.8,0-1.7,0-2.5,0.1c0.1-0.1,0.1-0.3,0.2-0.3C369.4,171.9,370.3,171.9,371.2,172.4
	L371.2,172.4z"/>
<path d="M371.2,172.4c0,0.3,0,0.7,0,1c-0.1,0-0.3,0-0.4-0.1C370.9,173.1,371.1,172.7,371.2,172.4
	C371.2,172.4,371.2,172.4,371.2,172.4z"/>
<path d="M384.4,157c-0.2-0.1-0.3-0.2-0.4-0.3c0.1-0.2,0.3-0.4,0.4-0.4c0.1,0,0.3,0.2,0.4,0.3C384.7,156.8,384.5,156.9,384.4,157z"/>
</svg>
